/* XPM */
static char *_7159df9e3634a96fb7012a5d14122228jJqYItY9heJO8iT[] = {
/* columns rows colors chars-per-pixel */
"64 64 146 2 ",
"   c #71FFFA",
".  c #7AFFFA",
"X  c #83FFFA",
"o  c #8CFFFA",
"O  c #93FFFA",
"+  c #9CFFFA",
"@  c #A4FFFA",
"#  c #A9FFFC",
"$  c #ADFFFC",
"%  c #AFFFFC",
"&  c #ACFFFA",
"*  c #B0FFFA",
"=  c #B1FFFA",
"-  c #B0FFFB",
";  c #B1FFFB",
":  c #B2FFFA",
">  c #B3FFFA",
",  c #B2FFFB",
"<  c #B3FFFB",
"1  c #B4FFFA",
"2  c #B5FFFA",
"3  c #B4FFFB",
"4  c #B5FFFB",
"5  c #B6FFFA",
"6  c #B7FFFA",
"7  c #B6FFFB",
"8  c #B7FFFB",
"9  c #B1FFFC",
"0  c #B2FFFC",
"q  c #B3FFFC",
"w  c #B4FFFC",
"e  c #B7FFFC",
"r  c #B1FFFC",
"t  c #B8FFFA",
"y  c #B9FFFA",
"u  c #B8FFFB",
"i  c #B9FFFB",
"p  c #BAFFFA",
"a  c #BAFFFB",
"s  c #BBFFFB",
"d  c #BCFFFA",
"f  c #BDFFFA",
"g  c #BCFFFB",
"h  c #BDFFFB",
"j  c #BEFFFA",
"k  c #BFFFFA",
"l  c #BEFFFB",
"z  c #BFFFFB",
"x  c #B8FFFC",
"c  c #B9FFFC",
"v  c #B8FFFD",
"b  c #B9FFFD",
"n  c #BAFFFC",
"m  c #BBFFFC",
"M  c #BBFFFD",
"N  c #BCFFFC",
"B  c #BDFFFC",
"V  c #BCFFFD",
"C  c #BDFFFD",
"Z  c #BEFFFC",
"A  c #BFFFFC",
"S  c #BEFFFD",
"D  c #BCFFFD",
"F  c #C0FFFA",
"G  c #C1FFFA",
"H  c #C0FFFB",
"J  c #C1FFFB",
"K  c #C2FFFA",
"L  c #C3FFFA",
"P  c #C2FFFB",
"I  c #C3FFFB",
"U  c #C5FFFA",
"Y  c #C4FFFB",
"T  c #C5FFFB",
"R  c #C6FFFA",
"E  c #C6FFFB",
"W  c #C7FFFB",
"Q  c #C0FFFC",
"!  c #C1FFFC",
"~  c #C0FFFD",
"^  c #C1FFFD",
"/  c #C2FFFC",
"(  c #C2FFFD",
")  c #C3FFFD",
"_  c #C5FFFC",
"`  c #C4FFFD",
"'  c #C6FFFC",
"]  c #C7FFFC",
"[  c #C6FFFD",
"{  c #C8FFFA",
"}  c #C9FFFA",
"|  c #C8FFFB",
" . c #C9FFFB",
".. c #CAFFFB",
"X. c #CBFFFB",
"o. c #CCFFFB",
"O. c #CDFFFB",
"+. c #CEFFFA",
"@. c #CEFFFB",
"#. c #CFFFFB",
"$. c #C9FFFD",
"%. c #CBFFFC",
"&. c #CAFFFD",
"*. c #CBFFFD",
"=. c #CCFFFD",
"-. c #CEFFFD",
";. c #CFFFFD",
":. c #CDFFFD",
">. c #D0FFFB",
",. c #D1FFFB",
"<. c #D0FFFD",
"1. c #D1FFFD",
"2. c #D2FFFD",
"3. c #D2FFFE",
"4. c #D5FFFD",
"5. c #D6FFFD",
"6. c #D8FFFD",
"7. c #DAFFFD",
"8. c #DFFFFE",
"9. c #DDFFFE",
"0. c #E1FFFF",
"q. c #E2FFFF",
"w. c #E6FFFF",
"e. c #E7FFFF",
"r. c #E4FFFF",
"t. c #E8FFFF",
"y. c #EAFFFF",
"u. c #ECFFFF",
"i. c #EFFFFF",
"p. c #ECFFFF",
"a. c azure",
"s. c #F1FFFF",
"d. c #F2FFFF",
"f. c #F3FFFF",
"g. c #F4FFFF",
"h. c #F5FFFF",
"j. c #F7FFFF",
"k. c #F6FFFF",
"l. c #F9FFFF",
"z. c #FAFFFF",
"x. c #FBFFFF",
"c. c #FCFFFF",
"v. c #FDFFFF",
"b. c #FEFFFF",
"n. c white",
"m. c #FFFFFF",
/* pixels */
"n.n.n.n.n.n.n.n.n.n.n.n.n.n.n.n.n.n.n.n.n.n.n.n.n.n.n.n.n.n.n.n.n.n.n.n.n.n.n.n.n.n.n.n.n.n.n.n.n.n.n.n.n.n.n.n.n.n.n.n.n.n.n.n.",
"n.n.n.n.n.n.n.n.n.n.n.n.n.n.n.n.n.n.n.n.n.n.n.n.n.n.n.n.n.n.n.n.n.n.n.n.n.n.n.n.n.n.n.n.n.n.n.n.n.n.n.n.n.n.n.n.n.n.n.n.n.n.n.n.",
"n.n.n.n.n.n.n.n.n.n.n.n.n.n.n.n.n.n.n.n.n.n.i.0.S O X .               . . X O 0 4.y.a.n.n.n.n.n.n.n.n.n.n.n.n.n.n.n.n.n.n.n.n.n.",
"n.n.n.n.n.n.n.n.n.n.n.n.n.n.n.n.n.n.n.n.i.M X                                     X @ -.n.n.n.n.n.n.n.n.n.n.n.n.n.n.n.n.n.n.n.n.",
"n.n.n.n.n.n.n.n.n.n.n.n.n.n.n.n.n.z.e.# X                                               o S a.n.n.n.n.n.n.n.n.n.n.n.n.n.n.n.n.n.",
"n.n.n.n.n.n.n.n.n.n.n.n.n.n.n.n.e.% X                                                       X S h.n.n.n.n.n.n.n.n.n.n.n.n.n.n.n.",
"n.n.n.n.n.n.n.n.n.n.n.n.n.n.z.) o                       . . . . . . .                           X ) z.n.n.n.n.n.n.n.n.n.n.n.n.n.",
"n.n.n.n.n.n.n.n.n.n.n.n.n.y.@ .                   . . X o o X X X X X X . . .                       @ a.n.n.n.n.n.n.n.n.n.n.n.n.",
"n.n.n.n.n.n.n.n.n.n.n.n.3.o                   . . X o o o o o O o o o o X . . .                       O 8.n.n.n.n.n.n.n.n.n.n.n.",
"n.n.n.n.n.n.n.n.n.n.n.*..                   . X X o O O O O O O O o o o o X . . .                       X e.n.n.n.n.n.n.n.n.n.n.",
"n.n.n.n.n.n.n.n.n.n.) .                   . . X o @ > & + + + + + O O o o o . . . .                       o e.n.n.n.n.n.n.n.n.n.",
"n.n.n.n.n.n.n.n.n.*..                     . X X o O O O O O + + + + O O O O o . . .                         O e.n.n.n.n.n.n.n.n.",
"n.n.n.n.n.n.n.n.3..                     . X X o O + + O + + + + @ @ + O O O O o X X .                         + a.n.n.n.n.n.n.n.",
"n.n.n.n.n.n.z.3.X                       X o O O + @ @ @ @ & & & & & & @ + + + O O o o X .                       % n.n.n.n.n.n.n.",
"n.n.n.n.n.n.3..                       . o + + @ & > % % % 7 > % % > % @ @ @ @ + O O o X X X . .                 . *.n.n.n.n.n.n.",
"n.n.n.n.n.z.X                     . . X + @ @ & > 7 7 7 7 7 7 7 > > > @ @ & @ + + + O o o X X X . .               X 0.n.n.n.n.n.",
"n.n.n.n.n.)                     . . X O + @ & % > 7 i i i h i i i 7 > % & % @ + + + + o X X X X X . .               @ n.n.n.n.n.",
"n.n.n.n.a..                     . . o + @ & % > > i h h h H H i i 7 > % % & @ @ @ @ + O o o o X X . . .               3.n.n.n.n.",
"n.n.n.n.M                   . . X o + @ @ & 7 7 7 i H H H H H h h 7 > > % @ @ @ @ @ + + O o o o o X . .               X h.n.n.n.",
"n.n.n.n..                   . X X O + @ @ > 7 7 7 i h H Y Y Y H h 7 > > % & & % & @ @ + O O o o o X X . .               [ n.n.n.",
"n.n.n.[                   . . X o O + @ & > 7 i i i h h h H H H i > % % % & % % % & @ @ O O o X o o X . .               O z.n.n.",
"n.n.n.+                 . . . X o O @ & % > > 7 i h h h h h i 7 > & % > % % % % % % & @ + O O o o o X X .               . a.n.n.",
"n.n.i..               . . . X o O + @ > 7 7 7 i i i i h S h h i 7 > > > % % > > % & % & @ + O o o o X X .                 S n.n.",
"n.n.e.                . . . X o O + & 7 i h h h i i i M M M S S M > > > % % > 7 > > % & @ + O O o o X X .                 + n.n.",
"n.n.-.                . . X X o O @ % 7 h H Y H H i i M M S S M M 7 > > % > > 7 7 > % & @ + O o o o o X X                 X h.n.",
"n.n.@               . . X X X o O @ % 7 h H Y Y Y H H H S ) S 7 w > & & & & % > 7 > % @ @ + O o o o o o .                 . *.n.",
"n.n.O               . . X X X o + @ & 7 h h H Y  .Y H H h h i 7 i > & @ @ @ @ % > > % @ @ @ + O O O o o X                   M n.",
"n.n.X               . X X X o o + + @ > i h H Y Y ) h h i i i i h 7 % @ @ + + @ @ & % & @ @ @ + + + O o X                   @ n.",
"n.n..                 . X X o O O + + @ > i H Y Y h h h i i i i i > > @ @ + + @ @ @ & @ @ @ + + + + O O o X                 O n.",
"n.n..                 . X X o O O + @ @ 7 h  .Y H h H Y H h h i i i 7 @ @ @ + + @ @ @ @ @ + + + + O O O o X .               o n.",
"n.n.                  . . X o O O + @ @ 7 H  .Y Y Y Y  .Y H H h h h i > & @ @ @ @ @ @ @ @ + + + O O O O o X X .             X n.",
"n.n.                  . . X o O + + + @ 7 h H H Y  . . .Y Y H i i h h 7 % & @ & @ & & @ @ @ @ + + O O O o X X .             X n.",
"n.n.                    . . o O O O + & % i H Y  . . . .Y Y Y H H H h i > & @ & & & & @ @ + + + + + O O o X X X             X n.",
"n.n.                    . . o O O O + @ % i H H Y  . .Y H H Y Y H h i i > & @ & & @ @ @ @ @ @ @ @ @ + O o X X X .           X n.",
"n.n.                      . o o O + @ @ & 7 h H Y  . . .H H H Y H i 7 > & @ @ @ + + @ @ @ @ @ @ @ @ @ + O X X X .           X n.",
"n.n..                     . X o O + @ @ & > 7 h H Y Y  .Y Y H H H i 7 % @ @ @ @ + @ & > > % @ @ @ @ + + O o X X             O n.",
"n.n..                       . X o O @ & % % > i h H Y  . .Y Y Y H i % @ @ @ @ % @ @ % > > % % @ @ + + + O o X .             + n.",
"n.n.X                       . . X O + & % % > i H Y  .O.O.O. .Y H i % & & & & % & & % > > % & & @ @ + + O o X .             % n.",
"n.n.O                       . X o O @ & % % > h Y Y O.>.>.O.O. .H i 7 > > > & & & & % > > % & & & & & + O o X .             S n.",
"n.n.w                       . X O o + @ % & > i H Y *.>.O.O. .H h h i 7 7 > & & & & % > 7 > % % % H @ + O o . .           . 6.n.",
"n.n.6.                      . X O O + @ & % > i h Y [ [  . .Y h h h i i 7 % % % & & & % % % % % h i + O o X .             o z.n.",
"n.n.i.X                     . X o @ + + @ % > i h H [ [ Y Y H h h h 7 > > % % > & & & & @ @ @ 7 Y @ O o X . .             % n.n.",
"n.n.h.@                     . . X + % @ @ % > i i h ) ) H h h i 7 7 > % > % % & @ & & @ @ @ 7 Y i + O X . . .           . -.n.n.",
"n.n.n.3.                    . . X o O + + @ % > 7 i i h 7 > 7 > % % % % > % & @ @ @ @ @ @ & O. .& + o . . . .           o h.n.n.",
"n.n.n.n.o                   . . . o o o O + @ & % > > 7 > % % & @ @ @ & & % @ + O + + @ @ H O.h + O o . . .             M n.n.n.",
"n.n.n.n.)                   . . . X o o O + + @ & % > % & & @ @ @ @ @ + @ @ + O O O O + &  . .@ O o X . .             . 8.n.n.n.",
"n.n.n.n.h.X                 . . . . X o o O + + @ @ & @ @ @ @ + @ @ @ + + + O O o o O O 7 Y 7 O O o X .               @ n.n.n.n.",
"n.n.n.n.n.[                   . . . X X o o O O + @ @ @ @ + + + + + + O o o O O o o O @ Y 7 O o o X .               X z.n.n.n.n.",
"n.n.n.n.n.h.+                 . . . X X X o o O O + + @ @ + + O O O O o X o o o o O + 7 % O X X . .                 *.n.n.n.n.n.",
"n.n.n.n.n.n.4..                 . . . X X X o o o O O O + + O O O o X X X X X X o O % + o X . . . .               O i.n.n.n.n.n.",
"n.n.n.n.n.n.n.)                     . . X X X X X X X o o o o o X . .   . . . X o + o . . . . . .               X e.n.n.n.n.n.n.",
"n.n.n.n.n.n.n.z.0                       . . . . . . . . .   .               . o o . . . . . . .               . 8.n.n.n.n.n.n.n.",
"n.n.n.n.n.n.n.n.e.O                                                               . . . . . .                 % z.n.n.n.n.n.n.n.",
"n.n.n.n.n.n.n.n.n.y.O                                                                                       0 h.n.n.n.n.n.n.n.n.",
"n.n.n.n.n.n.n.n.n.n.y.O                                                                                   0 n.n.n.n.n.n.n.n.n.n.",
"n.n.n.n.n.n.n.n.n.n.n.e.+                                                                             . 0 h.n.n.n.n.n.n.n.n.n.n.",
"n.n.n.n.n.n.n.n.n.n.n.n.h.0 .                                                                       o 8.z.n.n.n.n.n.n.n.n.n.n.n.",
"n.n.n.n.n.n.n.n.n.n.n.n.n.n.-.o                                                                   + e.n.n.n.n.n.n.n.n.n.n.n.n.n.",
"n.n.n.n.n.n.n.n.n.n.n.n.n.n.n.e.0 .                                                           X *.i.n.n.n.n.n.n.n.n.n.n.n.n.n.n.",
"n.n.n.n.n.n.n.n.n.n.n.n.n.n.n.n.n.0.O                                                     X @ z.n.n.n.n.n.n.n.n.n.n.n.n.n.n.n.n.",
"n.n.n.n.n.n.n.n.n.n.n.n.n.n.n.n.n.n.h.-.@ X                                         . o M 0.n.n.n.n.n.n.n.n.n.n.n.n.n.n.n.n.n.n.",
"n.n.n.n.n.n.n.n.n.n.n.n.n.n.n.n.n.n.n.n.z.a.S @ X .                           . o 0 -.h.n.n.n.n.n.n.n.n.n.n.n.n.n.n.n.n.n.n.n.n.",
"n.n.n.n.n.n.n.n.n.n.n.n.n.n.n.n.n.n.n.n.n.n.n.n.h.-.M # + o X X X X X O + 0 S 6.z.n.n.n.n.n.n.n.n.n.n.n.n.n.n.n.n.n.n.n.n.n.n.n.",
"n.n.n.n.n.n.n.n.n.n.n.n.n.n.n.n.n.n.n.n.n.n.n.n.n.n.n.n.n.n.n.n.n.n.n.n.n.n.n.n.n.n.n.n.n.n.n.n.n.n.n.n.n.n.n.n.n.n.n.n.n.n.n.n."
};
