/* XPM */
static char *df2d435a1540434e8881593ed36b8c19KnZZn0NqGlOl8gKP[] = {
/* columns rows colors chars-per-pixel */
"96 64 37 1 ",
"  c #7BEFFF",
". c #7EF0FF",
"X c #82EFFF",
"o c #84F0FF",
"O c #8CF1FF",
"+ c #94F2FF",
"@ c #9CF3FF",
"# c #A3F4FF",
"$ c #ABF5FF",
"% c #AEF5FF",
"& c #B1F6FF",
"* c #B4F6FF",
"= c #BAF7FF",
"- c #BEF7FF",
"; c #B5F8FF",
": c #BBF8FF",
"> c #BDF8FF",
", c #C0F7FF",
"< c #C5F7FF",
"1 c #C2F8FF",
"2 c #C4F8FF",
"3 c #CAF9FF",
"4 c #CCF9FF",
"5 c #D2FBFF",
"6 c #D6FAFF",
"7 c #D8FAFF",
"8 c #DBFBFF",
"9 c #DDFBFF",
"0 c #DFFBFF",
"q c #E3FBFF",
"w c #E1FCFF",
"e c #E5FCFF",
"r c #E9FDFF",
"t c #EEFDFF",
"y c #F4FEFF",
"u c #F9FEFF",
"i c white",
/* pixels */
"iiiiiiiiiiiiiiiiiiiiiiiiiiiiiiiiiiiiiiiiiiiiiiiiiiiiiiiiiiiiiiiiiiiiiiiiiiiiiiiiiiiiiiiiiiiiiiii",
"iiiiiiiiiiiiiiiiiiiiiiiiiiiiiiiiiiiiiiiiiiiiiiiiiiiiiiiiiiiiiiiiiiiiiiiiiiiiiiiiiiiiiiiiiiiiiiii",
"iiiiiiiiiiiiiiiiiiiiiiiiiiiiiiiiiiiiiiiiiiiiiiiiiiiiiiiiiiiiiiiiiiiiiiiiiiiiiiiiiiiiiiiiiiiiiiii",
"iiiiiiiiiiiiiiiiiiiiiiiiiiiiiiiiiiiiiiiiiiiiiiiiiiiiiiiiiiiiiiiiiiiiiiiiiiiiiiiiiiiiiiiiiiiiiiii",
"iiiiiiiiiiiiiiiiiiiiiiiiiiiiiiiiiiiiiiiiiiiiiiiiiiiiiiiiiiiiiiiiiiiiiiiiiiiiiiiiiiiiiiiiiiiiiiii",
"iiiiiiiiiiiiiiiiiiiiiiiiiiiiiiiiiiiiut$+@+O+oooooOOOO+OO@+@9iiiiiiiiiiiiiiiiiiiiiiiiiiiiiiiiiiii",
"iiiiiiiiiiiiiiiiiiiiiiiiiiiiiiiiit&@  XooXoX oo.XooooOoOOo  o$iiiiiiiiiiiiiiiiiiiiiiiiiiiiiiiiii",
"iiiiiiiiiiiiiiiiiiiiiiiiiiiiiii$    +###%:*%##$:*1-*-,43362%O =iiiiiiiiiiiiiiiiiiiiiiiiiiiiiiiii",
"iiiiiiiiiiiiiiiiiiiiiiiiiiiii7o O@-;&&$&&%%$@@$=4671,676*6y6## *iiiiiiiiiiiiiiiiiiiiiiiiiiiiiiii",
"iiiiiiiiiiiiiiiiiiiiiiiiiiit# o$&*#+##=##@++@@###@@@@&14*=6r6*Ooiiiiiiiiiiiiiiiiiiiiiiiiiiiiiiii",
"iiiiiiiiiiiiiiiiiiiiiiiii$  .+&#####11*@+@++@#$%$@+@##$%1*=272# 9iiiiiiiiiiiiiiiiiiiiiiiiiiiiiii",
"iiiiiiiiiiiiiiiiiiiiiiii% +#=&+@%*%#%&*&#++++OO+@@#$###&$%:*,2, +iiiiiiiiiiiiiiiiiiiiiiiiiiiiiii",
"iiiiiiiiiiiiiiiiiiiiiii% +$*@+@&%&22*22%@@&&$##++OOO+$%=&$=22=r@ =iiiiiiiiiiiiiiiiiiiiiiiiiiiiii",
"iiiiiiiiiiiiiiiiiiiiii9 O%%@+#31%6it&#$$&&#@#$&&,1=@O+@=,1*=3=2t@ *iiiiiiiiiiiiiiiiiiiiiiiiiiiii",
"iiiiiiiiiiiiiiiiiiiiiiOo,&@+%44259w%@@%=%@@#$@+O+#5e*@+@+-><675y-Ooiiiiiiiiiiiiiiiiiiiiiiiiiiiii",
"iiiiiiiiiiiiiiiiiiiii# -3$@$,7642=###&@+@#&#++OOOO+#$#@$+@#2-44q6$ 7iiiiiiiiiiiiiiiiiiiiiiiiiiii",
"iiiiiiiiiiiiiiiiiiii9 @r9##*492&###@@+ooOOoXO+++@oO+$#%##@@#,226q= @iiiiiiiiiiiiiiiiiiiiiiiiiiii",
"iiiiiiiiiiiiiiiiiiiiOOiy&#-234&#@#@@+++#+ooOOO@+@@+@&35*@%$+@74-74ooiiiiiiiiiiiiiiiiiiiiiiiiiiii",
"iiiiiiiiiiiiiiiiiii$ 9i7&,54&$#+@#@+O@%#OoOOOO+++%:#+$4w&#$%+=y734$ 9iiiiiiiiiiiiiiiiiiiiiiiiiii",
"iiiiiiiiiiiiiiiiiiiOOuq,&45&%@#+@@O++%&@++@o O+OoO++++$2%$$$#@wu%&$ $iiiiiiiiiiiiiiiiiiiiiiiiiii",
"iiiiiiiiiiiiiiiiiii@+9t-$6$#$$%###@+++o.oOoooOOoooO+XO@@@+>%&@,y&&&o+iiiiiiiiiiiiiiiiiiiiiiiiiii",
"iiiiiiiiiiiiiiiiiii+Oq6$*2#@#*@@#$$@Xo  OooOOooXoooO.O&+OO24%@*92=,O@iiiiiiiiiiiiiiiiiiiiiiiiiii",
"iiiiiiiiiiiiiiiiiiio+t*#&*+@@#+@+#+Oo  ..oO++OoooO@o o51OX*t=#>r2-3O+iiiiiiiiiiiiiiiiiiiiiiiiiii",
"iiiiiiiiiiiiiiiiii3 &3$$,:+#+$O++#    ..   oooo+oooX.O%-+o&t3%=y2=4O+iiiiiiiiiiiiiiiiiiiiiiiiiii",
"iiiiiiiiiiiiiiiiii@ 23*=$#++#$O@Oo. o ..  .oo..X  oooo#%#O+,6:*3=:3O+iiiiiiiiiiiiiiiiiiiiiiiiiii",
"iiiiiiiiiiiiiiiiiiOo55*$##O@&@+@o.Xoooo      o   oo o.+#@+O=73=*-:1OOiiiiiiiiiiiiiiiiiiiiiiiiiii",
"iiiiiiiiiiiiiiiiii@O72%@*#O@@@#Oo O+oXOoXoo. oXoOOoOOoO++@+&672%,=*oOiiiiiiiiiiiiiiiiiiiiiiiiiii",
"iiiiiiiiiiiiiiiiii++4*$+=+OO+%#OoX+OooO@XoX  O+@#O++OOOO++@=4tt>213o+iiiiiiiiiiiiiiiiiiiiiiiiiii",
"iiiiiiiiiiiiiiiiii++4%++=+++@*@#oo+OOoO+oo  +%ooOO@OO@$@O+$&=tu*>23o+iiiiiiiiiiiiiiiiiiiiiiiiiii",
"iiiiiiiiiiiiiiiiiiOO7#+@*@@@@>3@o.o+@O.XOo.XO#+ooOOOO*&+O+@%#r1$252.@iiiiiiiiiiiiiiiiiiiiiiiiiii",
"iiiiiiiiiiiiiiiiiiOo5@+##@#+#==#oo.o+Ooooo.oXO@+OoooO%#+O+$2#>&%wq% 7iiiiiiiiiiiiiiiiiiiiiiiiiii",
"iiiiiiiiiiiiiiiiii+O4++##@#@#%&=@o.oOoo.o  ..o++@@o O+++O%&3$&*>uiO iiiiiiiiiiiiiiiiiiiiiiiiiiii",
"iiiiiiiiiiiiiiiiii++3++$&+@@#%$*#X. ooOoooo .O+$&$OoOo++O**3#&=2u9ooiiiiiiiiiiiiiiiiiiiiiiiiiiii",
"iiiiiiiiiiiiiiiiii+O5@@$@O+##$$-@oOoo+#+oOX  oO@#+@Ooo@OO--$%%,=74oOiiiiiiiiiiiiiiiiiiiiiiiiiiii",
"iiiiiiiiiiiiiiiiiiOO7##%&@##%+#1=##oOOO+XoOOOOXOo+2oooOO+$&@#*=,92.Oiiiiiiiiiiiiiiiiiiiiiiiiiiii",
"iiiiiiiiiiiiiiiiii++7*@&4*##%+@,*%@O++  .oO+OXXOOOo.oooo+,2+$4#%2=.+iiiiiiiiiiiiiiiiiiiiiiiiiiii",
"iiiiiiiiiiiiiiiiii@+62@54&@+#*#:3442@OX XooOO oo#O..ooXO&6%#*%@=4@ 3iiiiiiiiiiiiiiiiiiiiiiiiiiii",
"iiiiiiiiiiiiiiiiii+o=7*74=@++$=@@@&*+oX  .oOOXoO+OoooXO%4&#$$@$32O uiiiiiiiiiiiiiiiiiiiiiiiiiiii",
"iiiiiiiiiiiiiiiiii#o&4,574*@+O#+OO+OOoXoooOOOO+OOoooo+#=#@@++%29,oOiiiiiiiiiiiiiiiiiiiiiiiiiiiii",
"iiiiiiiiiiiiiiiiiit @=#*652#@OOOOO++OO+#@+OoooOOooO@&#&*@@@+$4t5=O+iiiiiiiiiiiiiiiiiiiiiiiiiiiii",
"iiiiiiiiiiiiiiiiiii%o*$#e56e%@+ooO+@*&&$#@OooOOO+@###$1@@@#$29t5&oOiiiiiiiiiiiiiiiiiiiiiiiiiiiii",
"iiiiiiiiiiiiiiiiiiit O2&67yit$@+O+O+++OOO@##+OO++@@%:=@@##$:5yr4&o@iiiiiiiiiiiiiiiiiiiiiiiiiiiii",
"iiiiiiiiiiiiiiiiiiii# >43qiiir%@@#%#++O+@#++OOoOO+174%@####-ri92# 9iiiiiiiiiiiiiiiiiiiiiiiiiiiii",
"iiiiiiiiiiiiiiiiiiiitoo635yiiie&@@&2=#%%#+++OOOO#154%#%#@&26ui7-o iiiiiiiiiiiiiiiiiiiiiiiiiiiiii",
"iiiiiiiiiiiiiiiiiiiii7 +447iirr7&###&$$$#$#@@++*42-%##++@=435rq+ *iiiiiiiiiiiiiiiiiiiiiiiiiiiiii",
"iiiiiiiiiiiiiiiiiiiiii@ 255quq579,3#$#$&&#$%%4w7**##++@$2325ri+ #iiiiiiiiiiiiiiiiiiiiiiiiiiiiiii",
"iiiiiiiiiiiiiiiiiiiiiitOOeq5iit554322=242%%%%&$#@@+++%36469t9@ @iiiiiiiiiiiiiiiiiiiiiiiiiiiiiiii",
"iiiiiiiiiiiiiiiiiiiiiii9 #7yiir5554556rtyrw3=@++@+$*:*3>23*@O %iiiiiiiiiiiiiiiiiiiiiiiiiiiiiiiii",
"iiiiiiiiiiiiiiiiiiiiiiii=776riie92>**=&#$,,&&#%*2-$$&=*%%O  o$iiiiiiiiiiiiiiiiiiiiiiiiiiiiiiiiii",
"iiiiiiiiiiiiiiiiiiiiiiiiiiq-=6e554441-*%#$&$%$&213542=+  X$9iiiiiiiiiiiiiiiiiiiiiiiiiiiiiiiiiiii",
"iiiiiiiiiiiiiiiiiiiiiiiiiiu3+*59ut64**%$####@+O+#$$+   $9iiiiiiiiiiiiiiiiiiiiiiiiiiiiiiiiiiiiiii",
"iiiiiiiiiiiiiiiiiiiiiiiiiii4  o+@OO+Ooo..X. o..oo  X$9iiiiiiiiiiiiiiiiiiiiiiiiiiiiiiiiiiiiiiiiii",
"iiiiiiiiiiiiiiiiiiiiiiiiiiiit9@+@O+@OO+OOOoOOOO@O$9iiiiiiiiiiiiiiiiiiiiiiiiiiiiiiiiiiiiiiiiiiiii",
"iiiiiiiiiiiiiiiiiiiiiiiiiiiiiiiiiiiiiiiiiiiiiiiiiiiiiiiiiiiiiiiiiiiiiiiiiiiiiiiiiiiiiiiiiiiiiiii",
"iiiiiiiiiiiiiiiiiiiiiiiiiiiiiiiiiiiiiiiiiiiiiiiiiiiiiiiiiiiiiiiiiiiiiiiiiiiiiiiiiiiiiiiiiiiiiiii",
"iiiiiiiiiiiiiiiiiiiiiiiiiiiiiiiiiiiiiiiiiiiiiiiiiiiiiiiiiiiiiiiiiiiiiiiiiiiiiiiiiiiiiiiiiiiiiiii",
"iiiiiiiiiiiiiiiiiiiiiiiiiiiiiiiiiiiiiiiiiiiiiiiiiiiiiiiiiiiiiiiiiiiiiiiiiiiiiiiiiiiiiiiiiiiiiiii",
"iiiiiiiiiiiiiiiiiiiiiiiiiiiiiiiiiiiiiiiiiiiiiiiiiiiiiiiiiiiiiiiiiiiiiiiiiiiiiiiiiiiiiiiiiiiiiiii",
"iiiiiiiiiiiiiiiiiiiiiiiiiiiiiiiiiiiiiiiiiiiiiiiiiiiiiiiiiiiiiiiiiiiiiiiiiiiiiiiiiiiiiiiiiiiiiiii",
"iiiiiiiiiiiiiiiiiiiiiiiiiiiiiiiiiiiiiiiiiiiiiiiiiiiiiiiiiiiiiiiiiiiiiiiiiiiiiiiiiiiiiiiiiiiiiiii",
"iiiiiiiiiiiiiiiiiiiiiiiiiiiiiiiiiiiiiiiiiiiiiiiiiiiiiiiiiiiiiiiiiiiiiiiiiiiiiiiiiiiiiiiiiiiiiiii",
"iiiiiiiiiiiiiiiiiiiiiiiiiiiiiiiiiiiiiiiiiiiiiiiiiiiiiiiiiiiiiiiiiiiiiiiiiiiiiiiiiiiiiiiiiiiiiiii",
"iiiiiiiiiiiiiiiiiiiiiiiiiiiiiiiiiiiiiiiiiiiiiiiiiiiiiiiiiiiiiiiiiiiiiiiiiiiiiiiiiiiiiiiiiiiiiiii",
"iiiiiiiiiiiiiiiiiiiiiiiiiiiiiiiiiiiiiiiiiiiiiiiiiiiiiiiiiiiiiiiiiiiiiiiiiiiiuuuiiiiiiiiiiiiiiiii"
};
