/* XPM */
static char *df2d435a1540434e8881593ed36b8c19KnZZn0NqGlOl8gKP[] = {
/* columns rows colors chars-per-pixel */
"96 64 37 1 ",
"  c #7BEFFF",
". c #7EF0FF",
"X c #82EFFF",
"o c #84F0FF",
"O c #8CF1FF",
"+ c #94F2FF",
"@ c #9CF3FF",
"# c #A3F4FF",
"$ c #ABF5FF",
"% c #AEF5FF",
"& c #B1F6FF",
"* c #B4F6FF",
"= c #BAF7FF",
"- c #BEF7FF",
"; c #B5F8FF",
": c #BBF8FF",
"> c #BDF8FF",
", c #C0F7FF",
"< c #C5F7FF",
"1 c #C2F8FF",
"2 c #C4F8FF",
"3 c #CAF9FF",
"4 c #CCF9FF",
"5 c #D2FBFF",
"6 c #D6FAFF",
"7 c #D8FAFF",
"8 c #DBFBFF",
"9 c #DDFBFF",
"0 c #DFFBFF",
"q c #E3FBFF",
"w c #E1FCFF",
"e c #E5FCFF",
"r c #E9FDFF",
"t c #EEFDFF",
"y c #F4FEFF",
"u c #F9FEFF",
"i c white",
/* pixels */
"iiiiiiiiiiiiiiiiiiiiiiiiiiiiiiiiiiiiiiiiiiiiiiiiiiiiiiiiiiiiiiiiiiiiiiiiiiiiiiiiiiiiiiiiiiiiiiii",
"iiiiiiiiiiiiiiiiiiiiiiiiiiiiiiiiiiiiiiiiiiiiiiiiiiiiiiiiiiiiiiiiiiiiiiiiiiiiiiiiiiiiiiiiiiiiiiii",
"iiiiiiiiiiiiiiiiiiiiiiiiiiiiiiiiiiiiiiiiiiiiiiiiiiiiiiiiiiiiiiiiiiiiiiiiiiiiiiiiiiiiiiiiiiiiiiii",
"iiiiiiiiiiiiiiiiiiiiiiiiiiiiiiiiiiiiiiiiiiiiiiiiiiiiiiiiiiiiiiiiiiiiiiiiiiiiiiiiiiiiiiiiiiiiiiii",
"iiiiiiiiiiiiiiiiiiiiiiiiiiiiiiiiiiiiiiiiiiiiiiiiiiiiiiiiiiiiiiiiiiiiiiiiiiiiiiiiiiiiiiiiiiiiiiii",
"iiiiiiiiiiiiiiiiiiiiiiiiiiiiiiiiiiiiut$+@+O+iiiooOOOO+OO@+@9iiiiiiiiiiiiiiiiiiiiiiiiiiiiiiiiiiii",
"iiiiiiiiiiiiiiiiiiiiiiiiiiiiiiiiit&@  XooXoXiii.XooooOoOOo  o$iiiiiiiiiiiiiiiiiiiiiiiiiiiiiiiiii",
"iiiiiiiiiiiiiiiiiiiiiiiiiiiiiii$    +###%:*%iii:*1-*-,43362%O =iiiiiiiiiiiiiiiiiiiiiiiiiiiiiiiii",
"iiiiiiiiiiiiiiiiiiiiiiiiiiiii7o O@-;&&$&&%%$iii=4671,676*6y6## *iiiiiiiiiiiiiiiiiiiiiiiiiiiiiiii",
"iiiiiiiiiiiiiiiiiiiiiiiiiiit# o$&*#+##=##@++iii##@@@@&14*=6r6*Ooiiiiiiiiiiiiiiiiiiiiiiiiiiiiiiii",
"iiiiiiiiiiiiiiiiiiiiiiiii$  .+&#####11*@+@++iii%$@+@##$%1*=272# 9iiiiiiiiiiiiiiiiiiiiiiiiiiiiiii",
"iiiiiiiiiiiiiiiiiiiiiiii% +#=&+@%*%#%&*&#+++iii+@@#$###&$%:*,2, +iiiiiiiiiiiiiiiiiiiiiiiiiiiiiii",
"iiiiiiiiiiiiiiiiiiiiiii% +$*@+@&%&22*22%@@&&iii+OOO+$%=&$=22=r@ =iiiiiiiiiiiiiiiiiiiiiiiiiiiiiii",
"iiiiiiiiiiiiiiiiiiiiii9 O%%@+#31%6it&#$$&&#@iii&,1=@O+@=,1*=3=2t@ *iiiiiiiiiiiiiiiiiiiiiiiiiiiii",
"iiiiiiiiiiiiiiiiiiiiiiOo,&@+%44259w%@@%=%@@#iiiO+#5e*@+@+-><675y-Ooiiiiiiiiiiiiiiiiiiiiiiiiiiiii",
"iiiiiiiiiiiiiiiiiiiii# -3$@$,7642=###&@+@#&#iiiOOO+#$#@$+@#2-44q6$ 7iiiiiiiiiiiiiiiiiiiiiiiiiiii",
"iiiiiiiiiiiiiiiiiiii9 @r9##*492&###@@+ooOOoXiii+@oO+$#%##@@#,226q= @iiiiiiiiiiiiiiiiiiiiiiiiiiii",
"iiiiiiiiiiiiiiiiiiiiOOiy&#-234&#@#@@+++#+ooOiii@@+@&35*@%$+@74-74ooiiiiiiiiiiiiiiiiiiiiiiiiiiiii",
"iiiiiiiiiiiiiiiiiii$ 9i7&,54&$#+@#@+O@%#OoOOiii++%:#+$4w&#$%+=y734$ 9iiiiiiiiiiiiiiiiiiiiiiiiiii",
"iiiiiiiiiiiiiiiiiiiOOuq,&45&%@#+@@O++%&@++@oiiiOoO++++$2%$$$#@wu%&$ $iiiiiiiiiiiiiiiiiiiiiiiiiii",
"iiiiiiiiiiiiiiiiiii@+9t-$6$#$$%###@+++o.oOooiiiooO+XO@@@+>%&@,y&&&o+iiiiiiiiiiiiiiiiiiiiiiiiiiii",
"iiiiiiiiiiiiiiiiiii+Oq6$*2#@#*@@#$$@Xo  OooOiiioooO.O&+OO24%@*92=,O@iiiiiiiiiiiiiiiiiiiiiiiiiiii",
"iiiiiiiiiiiiiiiiiiio+t*#&*+@@#+@+#+Oo  ..oO+iiiooO@o o51OX*t=#>r2-3O+iiiiiiiiiiiiiiiiiiiiiiiiiii",
"iiiiiiiiiiiiiiiiii3 &3$$,:+#+$O++#    ..   oiii+oooX.O%-+o&t3%=y2=4O+iiiiiiiiiiiiiiiiiiiiiiiiiii",
"iiiiiiiiiiiiiiiiii@ 23*=$#++#$O@Oo. o ..  .oiii  oooo#%#O+,6:*3=:39O+iiiiiiiiiiiiiiiiiiiiiiiiiii",
"iiiiiiiiiiiiiiiiiiiiiiiiiiiiiiiiiiiiiiiiiiiiiiiiiiiiiiiiiiiiiiiiiiiiiiiiiiiiiiiiiiiiiiiiiiiiiiii",
"iiiiiiiiiiiiiiiiiiiiiiiiiiiiiiiiiiiiiiiiiiiiiiiiiiiiiiiiiiiiiiiiiiiiiiiiiiiiiiiiiiiiiiiiiiiiiiii",
"iiiiiiiiiiiiiiiiiiiiiiiiiiiiiiiiiiiiiiiiiiiiiiiiiiiiiiiiiiiiiiiiiiiiiiiiiiiiiiiiiiiiiiiiiiiiiiii",
"iiiiiiiiiiiiiiiiiiiiiiiiiiiiiiiiiiiiiiiiiiiiiiiiiiiiiiiiiiiiiiiiiiiiiiiiiiiiiiiiiiiiiiiiiiiiiiii",
"iiiiiiiiiiiiiiiiiiiiiiiiiiiiiiiiiiiiiiiiiiiiiiiiiiiiiiiiiiiiiiiiiiiiiiiiiiiiiiiiiiiiiiiiiiiiiiii",
"iiiiiiiiiiiiiiiiiiiiiiiiiiiiiiiiiiiiiiiiiiiiiiiiiiiiiiiiiiiiiiiiiiiiiiiiiiiiiiiiiiiiiiiiiiiiiiii",
"iiiiiiiiiiiiiiiiii+O4++##@#@#%&=@o.oOoo.o  ..o++@@o O+++O%&3$&*>uiO iiiiiiiiiiiiiiiiiiiiiiiiiiii",
"iiiiiiiiiiiiiiiiii++3++$&+@@#%$*#X. ooOoooo .O+$&$OoOo++O**3#&=2u9ooiiiiiiiiiiiiiiiiiiiiiiiiiiii",
"iiiiiiiiiiiiiiiiii+O5@@$@O+##$$-@oOoo+#+oOX  oO@#+@Ooo@OO--$%%,=74oOiiiiiiiiiiiiiiiiiiiiiiiiiiii",
"iiiiiiiiiiiiiiiiiiOO7##%&@##%+#1=##oOOO+XoOOOOXOo+2oooOO+$&@#*=,92.Oiiiiiiiiiiiiiiiiiiiiiiiiiiii",
"iiiiiiiiiiiiiiiiii++7*@&4*##%+@,*%@O++  .oO+OXXOOOo.oooo+,2+$4#%2=.+iiiiiiiiiiiiiiiiiiiiiiiiiiii",
"iiiiiiiiiiiiiiiiii@+62@54&@+#*#:3442@OX XooOO oo#O..ooXO&6%#*%@=4@ 3iiiiiiiiiiiiiiiiiiiiiiiiiiii",
"iiiiiiiiiiiiiiiiii+o=7*74=@++$=@@@&*+oX  .oOOXoO+OoooXO%4&#$$@$32O uiiiiiiiiiiiiiiiiiiiiiiiiiiii",
"iiiiiiiiiiiiiiiiii#o&4,574*@+O#+OO+OOoXoooOOOO+OOoooo+#=#@@++%29,oOiiiiiiiiiiiiiiiiiiiiiiiiiiiii",
"iiiiiiiiiiiiiiiiiit @=#*652#@OOOOO++OO+#@+OoooOOooO@&#&*@@@+$4t5=O+iiiiiiiiiiiiiiiiiiiiiiiiiiiii",
"iiiiiiiiiiiiiiiiiii%o*$#e56e%@+ooO+@*&&$#@OooOOO+@###$1@@@#$29t5&oOiiiiiiiiiiiiiiiiiiiiiiiiiiiii",
"iiiiiiiiiiiiiiiiiiit O2&67yit$@+O+O+++OOO@##+OO++@@%:=@@##$:5yr4&o@iiiiiiiiiiiiiiiiiiiiiiiiiiiii",
"iiiiiiiiiiiiiiiiiiii# >43qiiir%@@#%#++O+@#++OOoOO+174%@####-ri92# 9iiiiiiiiiiiiiiiiiiiiiiiiiiiii",
"iiiiiiiiiiiiiiiiiiiitoo635yiiie&@@&2=#%%#+++OOOO#154%#%#@&26ui7-o iiiiiiiiiiiiiiiiiiiiiiiiiiiiii",
"iiiiiiiiiiiiiiiiiiiii7 +447iirr7&###&$$$#$#@@++*42-%##++@=435rq+ *iiiiiiiiiiiiiiiiiiiiiiiiiiiiii",
"iiiiiiiiiiiiiiiiiiiiii@ 255quq579,3#$#$&&#$%%4w7**##++@$2325ri+ #iiiiiiiiiiiiiiiiiiiiiiiiiiiiiii",
"iiiiiiiiiiiiiiiiiiiiiitOOeq5iit554322=242%%%%&$#@@+++%36469t9@ @iiiiiiiiiiiiiiiiiiiiiiiiiiiiiiii",
"iiiiiiiiiiiiiiiiiiiiiii9 #7yiir5554556rtyrw3=@++@+$*:*3>23*@O %iiiiiiiiiiiiiiiiiiiiiiiiiiiiiiiii",
"iiiiiiiiiiiiiiiiiiiiiiii=776riie92>**=&#$,,&&#%*2-$$&=*%%O  o$iiiiiiiiiiiiiiiiiiiiiiiiiiiiiiiiii",
"iiiiiiiiiiiiiiiiiiiiiiiiiiq-=6e554441-*%#$&$%$&213542=+  X$9iiiiiiiiiiiiiiiiiiiiiiiiiiiiiiiiiiii",
"iiiiiiiiiiiiiiiiiiiiiiiiiiu3+*59ut64**%$####@+O+#$$+   $9iiiiiiiiiiiiiiiiiiiiiiiiiiiiiiiiiiiiiii",
"iiiiiiiiiiiiiiiiiiiiiiiiiii4  o+@OO+Ooo..X. o..oo  X$9iiiiiiiiiiiiiiiiiiiiiiiiiiiiiiiiiiiiiiiiii",
"iiiiiiiiiiiiiiiiiiiiiiiiiiiit9@+@O+@OO+OOOoOOOO@O$9iiiiiiiiiiiiiiiiiiiiiiiiiiiiiiiiiiiiiiiiiiiii",
"iiiiiiiiiiiiiiiiiiiiiiiiiiiiiiiiiiiiiiiiiiiiiiiiiiiiiiiiiiiiiiiiiiiiiiiiiiiiiiiiiiiiiiiiiiiiiiii",
"iiiiiiiiiiiiiiiiiiiiiiiiiiiiiiiiiiiiiiiiiiiiiiiiiiiiiiiiiiiiiiiiiiiiiiiiiiiiiiiiiiiiiiiiiiiiiiii",
"iiiiiiiiiiiiiiiiiiiiiiiiiiiiiiiiiiiiiiiiiiiiiiiiiiiiiiiiiiiiiiiiiiiiiiiiiiiiiiiiiiiiiiiiiiiiiiii",
"iiiiiiiiiiiiiiiiiiiiiiiiiiiiiiiiiiiiiiiiiiiiiiiiiiiiiiiiiiiiiiiiiiiiiiiiiiiiiiiiiiiiiiiiiiiiiiii",
"iiiiiiiiiiiiiiiiiiiiiiiiiiiiiiiiiiiiiiiiiiiiiiiiiiiiiiiiiiiiiiiiiiiiiiiiiiiiiiiiiiiiiiiiiiiiiiii",
"iiiiiiiiiiiiiiiiiiiiiiiiiiiiiiiiiiiiiiiiiiiiiiiiiiiiiiiiiiiiiiiiiiiiiiiiiiiiiiiiiiiiiiiiiiiiiiii",
"iiiiiiiiiiiiiiiiiiiiiiiiiiiiiiiiiiiiiiiiiiiiiiiiiiiiiiiiiiiiiiiiiiiiiiiiiiiiiiiiiiiiiiiiiiiiiiii",
"iiiiiiiiiiiiiiiiiiiiiiiiiiiiiiiiiiiiiiiiiiiiiiiiiiiiiiiiiiiiiiiiiiiiiiiiiiiiiiiiiiiiiiiiiiiiiiii",
"iiiiiiiiiiiiiiiiiiiiiiiiiiiiiiiiiiiiiiiiiiiiiiiiiiiiiiiiiiiiiiiiiiiiiiiiiiiiiiiiiiiiiiiiiiiiiiii",
"iiiiiiiiiiiiiiiiiiiiiiiiiiiiiiiiiiiiiiiiiiiiiiiiiiiiiiiiiiiiiiiiiiiiiiiiiiiiiiiiiiiiiiiiiiiiiiii",
"iiiiiiiiiiiiiiiiiiiiiiiiiiiiiiiiiiiiiiiiiiiiiiiiiiiiiiiiiiiiiiiiiiiiiiiiiiiiuuuiiiiiiiiiiiiiiiii"
};
