/* XPM */
static char *_ab01e4650d84473bd02da69cfe36c8dHhF0oVjcUHUo03s8[] = {
/* columns rows colors chars-per-pixel */
"64 64 114 2 ",
"   c #66431D",
".  c #68451F",
"X  c #694720",
"o  c #6E4C24",
"O  c #704E27",
"+  c #714F28",
"@  c #715027",
"#  c #75532B",
"$  c #78572F",
"%  c #79582F",
"&  c #785730",
"*  c #7C5B33",
"=  c #805F37",
"-  c #816037",
";  c #84633B",
":  c #C37E33",
">  c #866741",
",  c #876A42",
"<  c #8B6C46",
"1  c #8E7049",
"2  c #927550",
"3  c #C48036",
"4  c #C6853B",
"5  c #C8873E",
"6  c #C7883F",
"7  c #C8883F",
"8  c #C78941",
"9  c #CB8E45",
"0  c #CA8D46",
"q  c #CB8E46",
"w  c #CA8E47",
"e  c #CB8E47",
"r  c #CB8F47",
"t  c #CA8C45",
"y  c #CC8F47",
"u  c #C98B42",
"i  c #CB8F49",
"p  c #CC8F48",
"a  c #CC9149",
"s  c #CD914A",
"d  c #CE934B",
"f  c #CD924D",
"g  c #CD934D",
"h  c #CE944D",
"j  c #CE944F",
"k  c #CF954F",
"l  c #CF9752",
"z  c #CF9955",
"x  c #D09852",
"c  c #D29A55",
"v  c #D09956",
"b  c #D29C58",
"n  c #D29D5A",
"m  c #D29D5B",
"M  c #D3A160",
"N  c #D6A364",
"B  c #98FFF2",
"V  c #99FFF2",
"C  c #9AFFF2",
"Z  c #9BFFF2",
"A  c #9CFFF2",
"S  c #9DFFF2",
"D  c #9EFFF2",
"F  c #9FFFF2",
"G  c #9FFFF3",
"H  c #A0FFF2",
"J  c #A1FFF2",
"K  c #A0FFF3",
"L  c #A2FFF2",
"P  c #A3FFF2",
"I  c #A2FFF3",
"U  c #A3FFF3",
"Y  c #A4FFF3",
"T  c #A5FFF3",
"R  c #A6FFF3",
"E  c #A7FFF3",
"W  c #A6FFF4",
"Q  c #A8FFF3",
"!  c #AAFFF3",
"~  c #A9FFF4",
"^  c #AFFFF4",
"/  c #B0FFF4",
"(  c #B2FFF4",
")  c #B5FFF4",
"_  c #B5FFF5",
"`  c #B7FFF5",
"'  c #C7F9F3",
"]  c #C7F9F3",
"[  c #C8F9F3",
"{  c #C9F9F3",
"}  c #CAF9F3",
"|  c #CBF9F3",
" . c #CCF9F3",
".. c #CDF9F3",
"X. c #CEF9F3",
"o. c #CFF9F3",
"O. c #CBF9F4",
"+. c #CCF9F4",
"@. c #CDF9F4",
"#. c #CEF9F4",
"$. c #CFF9F4",
"%. c #CFFAF5",
"&. c #CBF9F3",
"*. c #D0F9F4",
"=. c #D1F9F4",
"-. c #D2F9F4",
";. c #D0FAF5",
":. c #D1FAF5",
">. c #D2FAF5",
",. c #D4FAF6",
"<. c #D2FAF5",
"1. c #D9FAF5",
"2. c white",
"3. c white",
/* pixels */
"2.2.2.2.2.2.2.                    . o o o # o o # # * * % + O # & - ; ; ; ; * % # # % * - * # o     X o o o X 2.2.2.2.2.2.2.2.2.",
"2.2.2.2.2.2.2.                    . o o o # o o # # * * % @ O # * ; ; ; ; ; = % # # % * - * # X     X o o o X 2.2.2.2.2.2.2.2.2.",
"2.2.2.2.2.2.2.                      X o o o o o X O # % # o X @ % * = = ; ; * # o o @ % & # o .     . o o o X 2.2.2.2.2.2.2.2.2.",
"2.2.2.2.2.2.2.                      . X .   . .     . X . .   . X o O O o o X X .                     . X .   2.2.2.2.2.2.2.2.2.",
"2.2.2.2.2.2.2.        ' { { .                                                                     ' '         2.2.2.2.2.2.2.2.2.",
"2.2.2.2.2.2.2.        { { { { ' ' ' ' ' ' ' ' ' ' ' ' ' ' ' ' ' ' ' ' ' ' ' ' ' ' ' ' ' ' ' ' ' ' ' '         2.2.2.2.2.2.2.2.2.",
"2.2.2.2.2.2.2.  . o @ #.X.{ { { ' ' ' ' ' ' ' ' ' ' ' ' ' ' ' ' ' ' ' ' ' ' ' ' ' ' ' ' ' ' ' ' ' ' '         2.2.2.2.2.2.2.2.2.",
"2.2.2.2.2.2.2.  X # # *.#.X.{ { ' ' : : : : : : : : : : : : : : : : : : : : : : : : : : ' ' ' ' ' ' '         2.2.2.2.2.2.2.2.2.",
"2.2.2.2.2.2.2.  o # # #.#.{ { ' ' ' : : : : : : : : : : : : : : : : : : : : : : : : : : ' ' { { { { '         2.2.2.2.2.2.2.2.2.",
"2.2.2.2.2.2.2.  X @ # X.{ ' ' ' : : : : B B B B B B B B B B B B B B B B B B B B B B : : : { { { { { '   . .   2.2.2.2.2.2.2.2.2.",
"2.2.2.2.2.2.2.  . X o { ' ' ' ' : : : 3 B 3 : : : : : : : : : : : : : : : : : : : B : : : { { { { { ' X O o X 2.2.2.2.2.2.2.2.2.",
"2.2.2.2.2.2.2.        ' ' ' ' ' : : A A A 4 B B B B B B B B B A A A B B B B B B : B B : : ' { { { { { @ # # @ 2.2.2.2.2.2.2.2.2.",
"2.2.2.2.2.2.2.        ' ' ' ' ' : : A 4 u t A B 3 A A B B B A A A A B B B : B B : : B : : ' ' { ' ' { # # # # 2.2.2.2.2.2.2.2.2.",
"2.2.2.2.2.2.2.        ' ' ' ' ' : : A u E E U 4 4 4 4 4 4 4 t t t t 4 3 : : : B B : B : : ' { { { ' ' @ # # O 2.2.2.2.2.2.2.2.2.",
"2.2.2.2.2.2.2.        ' { { { { : : B 4 U U A U 4 A A U A U E E ! ! U A B : B B B : B : 3 { X.{ { { ' X o o X 2.2.2.2.2.2.2.2.2.",
"2.2.2.2.2.2.2.        ' { #.#.O.: : B : A A A A 4 A A A A U E U E E A A B : B B B : B 3 4 X.X.X.{ { '         2.2.2.2.2.2.2.2.2.",
"2.2.2.2.2.2.2.        ' #.*.*.#.3 : B : B B B B 3 B B B A A U A U U A A B : B B B : B 3 4 X.X.X.{ { '         2.2.2.2.2.2.2.2.2.",
"2.2.2.2.2.2.2.        { #.*.*.*.3 : B : B B B B 3 B B B B B B B B A B B B : B B B : B 3 4 { { { ' ' '         2.2.2.2.2.2.2.2.2.",
"2.2.2.2.2.2.2.. X X . ' X.#.*.X.3 : B : B B A 7 u 7 3 : : : : : : : : : : : : B B 3 B 3 3 { { ' ' ' '         2.2.2.2.2.2.2.2.2.",
"2.2.2.2.2.2.2.o o o X ' { #.#.{ : : B : : B U ~ a W A B B B B B B B B B B : B B 7 t W u 4 { { { { ' '         2.2.2.2.2.2.2.2.2.",
"2.2.2.2.2.2.2.o o o o ' { #.#.{ : : B B : A ^ ` ( ~ U B B B B B B B B B B B B A u ~ ~ t 7 { { { { { '         2.2.2.2.2.2.2.2.2.",
"2.2.2.2.2.2.2.o o o X ' #.#.#.#.3 : : B 3 a n N M g 4 : : : : : : : : : : : : 4 u ~ a t 7 { { X.X.{ '   . X X 2.2.2.2.2.2.2.2.2.",
"2.2.2.2.2.2.2.. X X . ' #.#.#.#.3 : : B B E ( ` ` E B B B B B B B B B B B B B B U E t u 4 { X.X.X.{ ' . o o o 2.2.2.2.2.2.2.2.2.",
"2.2.2.2.2.2.2.. X .   ' { #.#.#.{ : : : 3 t v n z u : : : : : : : : : : : : : : : : : : ' { { X.{ { ' X o o o 2.2.2.2.2.2.2.2.2.",
"2.2.2.2.2.2.2.X o o X ' ' { { { ' : : : : 4 t t 8 4 : : : : : : : : : : : : : : : : : : ' ' { { { { ' X O @ + 2.2.2.2.2.2.2.2.2.",
"2.2.2.2.2.2.2.o o o o ' ' ' { { { ' ' ' ' ' { { { { ' ' ' ' ' ' ' ' ' ' ' ' ' ' ' ' ' ' ' ' { { { { ' X # % # 2.2.2.2.2.2.2.2.2.",
"2.2.2.2.2.2.2.o @ # O ' ' { { { X.{ { ' ' ' ' ' ' ' ' ' ' ' ' ' ' ' ' ' ' ' ' ' ' ' ' ' ' ' ' ' ' ' ' o % & % 2.2.2.2.2.2.2.2.2.",
"2.2.2.2.2.2.2.o # # + { ' { { X.*.#.#.{ ' ' ' ' { { { { { { ' ' ' ' ' { { { ' ' ' ' { { ' ' { { { ' ' @ * * * 2.2.2.2.2.2.2.2.2.",
"2.2.2.2.2.2.2.X o + # { ' { { X.*.#.#.X.3 3 3 4 4 4 u 7 4 4 3 : : : 4 t i u 4 : : { #.#.O.{ X.#.#.{ ' O & * & 2.2.2.2.2.2.2.2.2.",
"2.2.2.2.2.2.2.X # & * { ' { X.X.#.#.#.{ 7 t 7 t u 4 & & # # 3 o o @ & j l j u : 3 #.#.#.#.#.X.#.#.{ ' X # # @ 2.2.2.2.2.2.2.2.2.",
"2.2.2.2.2.2.2.X # & * { X.; ; * { O.{ { u t u u t # & & # 4 @ : o @ * < n v y : 3 #.#.#.#.#.X.#.#.{ ' . o # + 2.2.2.2.2.2.2.2.2.",
"2.2.2.2.2.2.2.X @ # & X.; 2 2 < # { ' ' 5 t t 4 # @ @ @ @ 3 o : o o & < 1 x p : : { #.#.O.{ { X.{ ' ' X @ # # 2.2.2.2.2.2.2.2.2.",
"2.2.2.2.2.2.2.. + # % { ; 2 2.< # { ' ' 4 7 u @ o o o o o : : : o o @ * ; ; t : : ] ' { { { { { ' ' ' o & * & 2.2.2.2.2.2.2.2.2.",
"2.2.2.2.2.2.2.  X o o { & > , * + { ' ' u t # O o o o o o o : o o o O & * * # 4 3 ] ' ' { { { { ' ' ' o * * * 2.2.2.2.2.2.2.2.2.",
"2.2.2.2.2.2.2.  X o o ' { @ # @ { ' ' { g * * # o o o o o o : o o o o + # # @ @ 3 ' ' ' { { X.{ { ' ' X # % % 2.2.2.2.2.2.2.2.2.",
"2.2.2.2.2.2.2.  X o o ' ' ' ' ' ' ' ' { j * * & o o o o o o : o o o o O @ # & # 4 { ' ' { X.*.#.{ ' ' . o @ + 2.2.2.2.2.2.2.2.2.",
"2.2.2.2.2.2.2.  X o o ' ' ' { { { ' ' { g * * # o o o : 3 3 : : : : o # # * * & 4 { ' ' { *.*.*.#.' '   . X . 2.2.2.2.2.2.2.2.2.",
"2.2.2.2.2.2.2.  . X o ' ' { { { X.{ ' { t t 6 3 : : : 4 # # 4 # # 3 : 4 4 u t 7 4 { ' ' { *.*.*.*.{ '         2.2.2.2.2.2.2.2.2.",
"2.2.2.2.2.2.2.    . X ' ' { X.#.#.#.{ ' 4 O o o o o + # # 4 u u * * # # # # & # 3 ' ' ' { *.,.,.*.{ ' . X o X 2.2.2.2.2.2.2.2.2.",
"2.2.2.2.2.2.2.      . ' ' { #.*.*.*.{ ' 3 o o o o o O # 4 # t * t * % o @ @ O o : ' ' ' ' #.,.,.*.#.' X # # # 2.2.2.2.2.2.2.2.2.",
"2.2.2.2.2.2.2.        ' ' ' #.*.*.*.#.' : o o o o o o @ 4 # 4 * t * # o o o o o : ' ' ' ' #.,.,.*.O.' O * * * 2.2.2.2.2.2.2.2.2.",
"2.2.2.2.2.2.2.        ' ' ' #.,.,.*.#.' : o o o o o o : o o 3 # % 4 + o o o o o : ' ' ' ' *.,.,.*.{ ' @ = * * 2.2.2.2.2.2.2.2.2.",
"2.2.2.2.2.2.2.        ' ' ' #.,.,.*.{ ' : o o o o o o 3 @ O : o O : o o o o o o : ' ' ' { *.*.*.*.{ { # * * % 2.2.2.2.2.2.2.2.2.",
"2.2.2.2.2.2.2.        ' ' ' #.*.*.*.{ ' : o o o o @ 4 & # # 3 o o o : + O o o o : ' ' { X.*.*.*.#.' { O # # + 2.2.2.2.2.2.2.2.2.",
"2.2.2.2.2.2.2.        ' ' ' X.*.*.X.{ ' : o o o o # u * u 4 3 : : O 4 # # + o o : ' ' X.*.*.*.X.{ ' { o O @ X 2.2.2.2.2.2.2.2.2.",
"2.2.2.2.2.2.2.        ' ' { *.,.*.#.' ' : o o o + 4 & * t # @ o : @ # 4 # # o o : ' { #.*.*.*.{ ' ' ' O # # o 2.2.2.2.2.2.2.2.2.",
"2.2.2.2.2.2.2.        ' { #.,.1.1.#.' ' : o o o : # % * u @ o o : @ # # 4 @ o o : ' { #.#.*.#.{ ' ' ' O # # # 2.2.2.2.2.2.2.2.2.",
"2.2.2.2.2.2.2.        ' { *.1.1.1.*.{ ' : o o o : + @ @ : o o o : o # # 3 O o o : ' ' O.#.#.X.{ ' ' ' @ # # # 2.2.2.2.2.2.2.2.2.",
"2.2.2.2.2.2.2.        ' ' #.1.1.1.*.{ ' : o O 3 @ O o o : : : : : o o o o : o o : ' ' { { { { ' ' ' ' o # # @ 2.2.2.2.2.2.2.2.2.",
"2.2.2.2.2.2.2.        ' ' ' *.,.*.X.' ' : o # 4 # # o : o o o o o : o o @ 4 & # : ' ' ' ' ' ' ' ' ' ' . X o X 2.2.2.2.2.2.2.2.2.",
"2.2.2.2.2.2.2.        ' ' ' ' { { { ' ' : o 4 # # # : o o o o o o o : + & * t & 3 ' ' ' ' ' ' ' ' ' '         2.2.2.2.2.2.2.2.2.",
"2.2.2.2.2.2.2.        ' ' ' ' ' { { { ' : o 4 # # 4 o o o o o o o o o 3 & * t * 4 ' ' ' ' ' ' ' ' ' '         2.2.2.2.2.2.2.2.2.",
"2.2.2.2.2.2.2.        ' ' { { { { { { { : : o 3 3 3 : : : : : : : : : 3 5 t * u 3 ' ' { { ' ' ' ' ' ' . X o X 2.2.2.2.2.2.2.2.2.",
"2.2.2.2.2.2.2.        ' { { { X.{ { { { ' ' : ' ' ' ' ' ' ' : : : ' ' ' { { 4 O.' ' { #.#.{ ' ' ' ' ' X o o o 2.2.2.2.2.2.2.2.2.",
"2.2.2.2.2.2.2.        ' { { { { { { { { ' ' ' ' ' ' ' ' ' : ' : ' : ' ' ' ] O.O.' { #.#.#.#.' ' ' ' ' o o o o 2.2.2.2.2.2.2.2.2.",
"2.2.2.2.2.2.2.        : 3 4 4 4 3 3 : ' ' ' ' ' ' ' ' ' ' : ' : ' : ' ' ' ] ] ] ' { #.t t u : : : : : X o o X 2.2.2.2.2.2.2.2.2.",
"2.2.2.2.2.2.2.        ' ' { { { ' ' ' : : : : : : : : : : : ' : ' : : : : : : : : : 7 #.#.{ ' ' ' ' '   . .   2.2.2.2.2.2.2.2.2.",
"2.2.2.2.2.2.2.        ' ' ' ' ' ' ' { { ' ' ' ' ' ' ' ' ' : ' : ' : ' ' ' ' ' ' ' ' { { O.O.' ' ' ' '         2.2.2.2.2.2.2.2.2.",
"2.2.2.2.2.2.2.        ' ' ' ' ' ' ' ' ' ' ' ' ' ' ' ' ' ' : ' : ' : ' ' ' ' ' ' ' ' ' ' O.O.{ ' ' ' '         2.2.2.2.2.2.2.2.2.",
"2.2.2.2.2.2.2.        ' '                                                                         ' '         2.2.2.2.2.2.2.2.2.",
"2.2.2.2.2.2.2.                X O O X       X o @ # # # # O O # % % # O X         . .                         2.2.2.2.2.2.2.2.2.",
"2.2.2.2.2.2.2.              X @ # # @ X . . o # & * * * * & & * - ; * # o .     X o # & & & & & & & % # X     2.2.2.2.2.2.2.2.2.",
"2.2.2.2.2.2.2.              X # # # # X   X + # & ; ; * * * * * ; ; * % O .     X # & - ; ; ; ; ; ; ; & @ .   2.2.2.2.2.2.2.2.2.",
"2.2.2.2.2.2.2.              X @ # # @ X   . o # # * * * % # # & * = * # o .     X # * - ; ; ; ; ; ; ; * @ X   2.2.2.2.2.2.2.2.2."
};
