/* XPM */
static char *_d51111f57bf43e7e8d63c46e4c4340fGxonEHlooK2O0G9X[] = {
/* columns rows colors chars-per-pixel */
"96 64 117 2 ",
"   c #020202",
".  c #070807",
"X  c #070808",
"o  c #0C0C0C",
"O  c #10100F",
"+  c #141414",
"@  c #1B1B1B",
"#  c #1F201F",
"$  c #242424",
"%  c #272827",
"&  c #272828",
"*  c #2C2C2C",
"=  c #2F302F",
"-  c #2F3030",
";  c #333434",
":  c #373837",
">  c #383837",
",  c #373838",
"<  c #3B3B3B",
"1  c #40403F",
"2  c #3F4040",
"3  c #444444",
"4  c #474847",
"5  c #484847",
"6  c #474848",
"7  c #4B4B4B",
"8  c #50504F",
"9  c #4F5050",
"0  c #545454",
"q  c #575857",
"w  c #585857",
"e  c #575858",
"r  c #5B5C5B",
"t  c #60605F",
"y  c #636363",
"u  c #686867",
"i  c #676868",
"p  c #6B6B6B",
"a  c #70706F",
"s  c #747473",
"d  c #787877",
"f  c #7C7C7B",
"g  c #7F807F",
"h  c #80807F",
"j  c #7F8080",
"k  c #838483",
"l  c #868887",
"z  c #898987",
"x  c #878989",
"c  c #8C8C8B",
"v  c #90908F",
"b  c #949493",
"n  c #989897",
"m  c #9C9C9B",
"M  c #A0A09F",
"N  c #A3A3A2",
"B  c #A8A8A6",
"V  c #ACACAB",
"C  c #B0B0AE",
"Z  c #B4B4B3",
"A  c #B7B8B7",
"S  c #B8B8B6",
"D  c #B6BBB9",
"F  c #BCBDBB",
"G  c #BDC1BE",
"H  c #C0C0BF",
"J  c #BEC2C1",
"K  c #C3C4C3",
"L  c #C6C8C5",
"P  c #C8C9C7",
"I  c #C7CBCA",
"U  c #CCCDCB",
"Y  c #D0CFCC",
"T  c #CED0CE",
"R  c #D2D1CE",
"E  c #CED1D0",
"W  c #D4D5D3",
"Q  c #D8D7D4",
"!  c #D7D8D7",
"~  c #DAD9D6",
"^  c #D7D9D8",
"/  c #DCDDDB",
"(  c #DDDFDE",
")  c #E0DFDD",
"_  c #DDE0DF",
"`  c #DEE0DF",
"'  c #E1E1DF",
"]  c #DEE1E0",
"[  c #E0E2E1",
"{  c #E1E4E3",
"}  c #E5E5E3",
"|  c #E2E5E4",
" . c #E4E6E5",
".. c #E8E7E5",
"X. c #E5E8E7",
"o. c #E9E8E6",
"O. c #E7E8E8",
"+. c #E9E9E9",
"@. c #EBEBEA",
"#. c #EAECEB",
"$. c #EBEDEC",
"%. c #ECEEED",
"&. c #EEF0EF",
"*. c #F0F0EF",
"=. c #EEEFF1",
"-. c #EFF1F0",
";. c #F0F2F1",
":. c #F3F3F3",
">. c #F2F4F3",
",. c #F3F4F3",
"<. c #F3F5F4",
"1. c #F4F4F4",
"2. c #F4F5F5",
"3. c #F6F8F7",
"4. c #F3F6F9",
"5. c #F5F6F8",
"6. c #F6F7F8",
/* pixels */
"Z D F K K L U E T W W ^ ^ ^ _ _ ] ] ] { | X.O.O.+.+.#.$.$.%.$.&.&.-.-.-.-.;.;.-.;.;.;.;.;.>.>.>.<.<.<.<.<.<.2.2.2.2.2.2.2.3.3.3.2.3.3.2.2.2.3.3.5.3.5.5.5.5.5.5.5.5.5.5.5.5.5.5.5.5.5.5.4.4.4.4.",
"Z D G J K I U U E ! ^ ^ ^ ( ] _ [ [ { |  .O.O.+.#.#.#.%.%.%.%.%.&.-.;.-.-.-.;.;.;.-.-.;.;.>.>.<.<.<.<.<.<.<.<.2.2.2.2.2.2.2.3.3.3.3.3.3.2.2.2.2.2.5.5.5.5.2.5.5.5.5.5.5.5.5.5.5.5.5.5.5.5.4.4.4.",
"D J K L I I W W W ^ ^ / ( _ ] ] { [ | | | X.+.#.$.$.%.$.%.%.%.&.-.%.&.-.&.&.;.;.&.;.;.;.;.;.;.>.>.<.;.<.<.<.2.2.2.2.2.2.2.2.3.3.3.3.2.2.3.2.2.2.2.2.2.5.2.5.5.5.5.5.5.5.5.5.5.5.5.5.5.5.5.5.5.5.",
"D J K U U W W W ! ^ / _ ( _ _ [ [ | | X. .+.+.#.%.%.$.%.%.%.%.%.%.&.&.%.-.-.&.-.&.-.;.;.;.>.>.>.;.;.<.<.<.<.<.<.2.2.2.2.2.3.3.2.3.3.2.2.2.2.2.2.2.2.2.2.2.5.5.2.5.5.5.5.5.5.5.5.5.5.5.5.5.5.5.2.",
"G J I U U W W ^ ^ ( ( ] _ { { | | X.X. .O.+.+.#.#.%.%.%.%.%.%.%.%.W r * : % % * @ @ $ @ @ ; * 3 A >.<.>.>.>.<.<.2.2.2.3.2.2.2.2.2.2.2.2.3.2.2.2.2.2.3.5.3.5.5.5.5.5.5.5.5.5.5.5.5.5.5.5.5.5.5.2.",
"J K I T E W W / / / ] _ ] [ { | | X.X.X.+.#.+.+.$.$.%.%.%.%.&.r     . . .             . . X o     + 3 A >.>.<.;.<.<.<.2.2.2.2.2.2.2.2.2.2.2.2.2.2.2.3.3.2.2.2.5.5.5.5.5.5.5.5.5.5.5.5.5.5.5.5.2.",
"G K I U W W ^ ^ / ( _ ] { { X. .X.X.O.O.+.+.$.+.%.$.$.%.%.&.r   X       X o . . o X     . @ 6 f k :     + s <.>.<.2.<.2.2.2.2.2.2.2.3.2.3.3.3.2.2.3.3.3.2.2.2.5.5.5.5.5.5.5.5.5.5.5.5.5.5.5.5.2.",
"J I T T W W ^ ( _ _ _ ] | | |  .X.O.+.#.O.+.+.$.#.#.$.%.%.$     . @ : 3 < , 3 * % @ $ * +     + B >.A f @ + >.2.;.2.<.>.2.2.2.2.2.2.3.2.3.3.2.2.2.2.3.3.2.2.2.2.5.2.5.5.5.5.5.5.5.5.5.5.5.5.5.2.",
"K I U E W ^ ( ( ( ] ] [ { |  .O.X.O.+.#.+.$.$.$.#.%.#.%.<   . * 3 $ @ @ + o o + * : : 3 6 3 3 $ r V I N f   A <.>.>.2.2.<.2.2.2.2.2.2.2.2.2.2.2.2.3.2.2.3.3.2.2.2.2.5.5.5.5.5.5.5.5.5.5.5.5.5.2.",
"K U E W W ^ ^ ( ] { { |  .X.X.X.O.O.+.#.$.#.+.#.%.%.$.p     * $ % @ @ $ @ $ @ + $ % ; $ * & : r r p F N c   r <.<.2.>.<.2.<.<.<.<.2.2.2.2.2.2.2.2.2.2.2.3.3.3.2.2.2.5.5.5.5.5.5.5.5.5.5.5.5.5.5.",
"L U W W W ^ / ( ( [ [  .| O. .+.+.+.#.#.$.+.+.$.%.%.%.o   : % * ; = $ + @ + + % + o + @ , < y u p 0 r x N @ * <.>.>.<.>.2.2.2.<.2.2.<.2.2.2.2.2.2.2.2.2.3.2.2.2.2.5.2.5.5.5.5.5.5.5.5.5.5.5.5.2.",
"U U W ! ^ / / [ [ [ {  . .O.+.+.+.+.+.#.$.#.+.#.#.#.#..   * $ ; @ + o X o . o @ X . . X o % * 7 y q y s b < < >.<.>.2.2.2.<.2.2.2.>.2.2.2.2.2.2.2.2.2.3.3.2.2.2.2.2.2.5.2.5.5.5.5.5.5.5.5.5.2.2.",
"U T W W ^ / ( [ [ ] |  .O.O.+.O.+.+.$.$.#.$.+.$.#.#.%.. . * % @ + X X o X o + @ + .   o + . o , y 6 g f p $ * ;.;.2.2.<.;.2.2.2.2.2.2.2.2.2.2.2.2.2.2.3.2.2.2.2.3.2.3.5.2.5.5.5.5.5.2.5.5.5.5.2.",
"U W W / / / ( ( [ |  . . . .+.+.+.#.%.#.#.#.#.#.+.#.%..   * ; + @ o X X . X o o X X X . X O @ + e u m k u @ % ;.>.;.<.>.;.2.2.;.2.;.2.>.2.2.2.2.2.2.2.2.2.2.2.2.2.2.3.3.2.5.5.5.5.5.2.5.5.2.2.2.",
"E W ! / / ( ( [ { [  . .+.+.+.+.+.#.$.#.+.#.$.+.$.#.$..   * : + + + X o . . + O X + o X o @ + * 6 y y k c $ ; ;.>.;.;.;.>.>.<.;.<.2.2.;.2.2.2.2.2.2.2.2.2.2.2.2.2.2.2.3.2.2.5.5.5.5.5.5.5.5.5.5.",
"W W ^ / ( ' ' ' {  .X.X.O.O.+.+.+.+.+.+.$.%.+.+.+.+.#.X   $ % + $ + . . .   o . o + o o o + < q q 9 7 j k + * >.;.;.;.;.>.>.>.;.<.>.2.2.2.;.2.2.2.2.2.2.2.2.2.2.2.2.2.2.2.2.2.5.5.2.5.5.5.2.5.2.",
"W ! / / ( ] [ '  . . . .+.+.+.+.+.+.+.+.#.+.+.+.+.#.#.o   % $ + # o + X o       X o o @ @ % ; y y 7 q r i X 3 ;.;.>.;.;.;.2.>.;.;.>.2.;.;.2.2.2.2.2.2.2.2.2.2.2.2.2.<.2.2.2.2.2.5.2.5.5.2.5.5.2.",
"W ! / ( ( [ { | [ | O.+. .+.+.+.+.+.O.+.+.+.+.#.%.+.$.3   @ < @ $ + + X o .     . X X + + @ ; p y r 0 3 3   A ;.;.;.;.;.2.>.>.2.>.2.>.2.;.>.;.;.2.2.2.2.2.2.2.2.2.2.2.2.2.2.2.2.5.5.5.2.5.5.2.2.",
"W ^ ^ / ( ] [ { |  . . .+.O.+.#.+.+.O.+.+.$.+.+.+.+.$.L     % 6 ; * : * * + .   . o o + + % 3 y 0 f 7 q $   ;.;.;.>.;.;.>.;.>.;.>.2.;.;.;.;.2.2.2.2.2.2.2.2.2.2.2.2.2.2.2.2.<.2.5.2.5.5.5.5.5.2.",
"W ^ / ( ] [ |  . .| O.+.+.+.+.+.+.+.O.O.+.+.+.+.$.#.#.$.: .   3 : % , r ; : 6 $ X o % @ * 3 i 3 l V s y X , ;.;.;.;.;.;.;.;.;.;.;.;.;.;.;.2.2.2.;.2.2.2.2.2.2.2.2.2.2.2.2.2.<.2.2.2.5.5.2.5.2.2.",
"W ^ / / ( ] [  . .|  . .+.+.+.+.O.+.+.+.+.+.+.+.+.+.$.+.Z   X o q < $ ; , 3 0 r * $ : ; ; , 6 7 f m N 7   B ;.;.;.;.;.>.;.;.;.;.;.;.;.;.;.;.;.2.2.2.2.2.2.2.2.2.2.2.2.2.2.2.2.2.2.2.2.2.5.5.5.5.",
"W ^ / ( ( [ [  . . . .+.+.+.+.O.+.+.O.+.+.O.+.+.+.+.+.%.U   @   $ 0 3 , - : , 6 3 : , ; 2 q f J K V I @   ;.;.;.;.;.;.;.;.;.;.;.;.;.:.;.;.;.;.;.;.;.2.;.2.2.2.2.2.2.2.2.2.2.2.2.2.2.<.2.5.5.5.<.",
"! / / ( ]  .{  . .O.O.+.+.+.+.+.+.+.+.+.X.+.+.+.+.+.+.+.#.6           . o @ ; 3 q q r f l b V N V A 6   a ;.;.;.;.;.;.;.;.;.;.;.;.;.;.;.;.;.;.;.;.2.;.;.2.2.2.2.2.2.2.2.2.<.2.<.2.2.2.<.5.<.5.<.",
"^ ^ / ( [ [ |  . . .O.+.+.+.+.+.+.+.+.+.+.+.+.O.+.+.+.#.+.$.U Z ; # X     . X o o + q / N V m c l ;   r ;.%.;.;.;.;.;.;.;.;.;.;.;.;.;.;.;.;.;.;.;.;.;.;.2.;.2.2.2.2.2.2.2.2.2.<.<.<.<.2.2.<.5.<.",
"! / / ] { [  . .O.X.+.+.+.+.+.+.+.+.+.+.+.O.O.+.O.+.+.+.#.$.$.$.#.+.$.U m % @ + o     + * * +     + r ;.-.-.*.;.;.;.;.;.;.;.*.;.;.;.;.;.;.;.;.;.;.:.;.;.;.;.2.;.2.2.2.;.2.2.2.2.2.2.2.2.<.<.5.;.",
"^ / / ( ] [  . .X. .+.+.+.+.X.+.+.+.+.+.+. .+.+.+.+.+.+.+.%.#.$.#.#.%.$.$.%.%.{ { * * , * , $ r Z =.-.%.*.;.*.;.;.;.;.;.;.;.;.;.;.;.;.;.;.;.;.;.;.;.;.;.;.;.2.2.2.2.2.;.;.2.2.2.2.<.<.<.<.<.<.<.",
"/ ( ] ] { | }  .O.O.O.+.+.+.+.+.+. .+.+.o.+.+.+.#.+.+.+.+.+.#.$.#.$.%.#.$.%.%.%.%.* * %.( V f * $ r s c B F W %.;.;.;.;.;.*.;.;.;.;.;.;.;.;.;.;.;.;.;.;.;.;.;.2.;.;.2.;.;.;.2.;.>.<.<.>.<.<.<.;.",
"/ ( ( ] [  .{  . . . .+.+.+.+.+.X.o.+.+. . .+.+.#.+.+.+. ._ ^ W E K K | { ( [ [ %.% o +       o + +             + @ * s m K +.*.;.%.;.;.;.;.;.;.2.;.;.;.;.;.;.;.;.;.;.;.;.;.2.2.;.>.>.>.;.;.;.;.",
"/ ( ] ] [  . . .X.O.+.+.X.+.+.+. .( W I K A V B m b c k f f s x c l c l l k k f B $ . o 7 y N V Z f s f y q r 0 ; + o         + ; r k A  .;.;.;.;.;.;.;.;.;.;.2.;.;.2.2.;.;.;.;.;.;.;.>.;.;.;.;.",
"/ ( ( ] [ [ |  .o.+. .+.O.^ V f p p u u u u y y y r r r q q 0 0 7 6 3 6 4 6 4 6 u @ . @ s k u y y f r 3 0 0 u k N l y k u 0 ; + o         + : p m L +.;.;.;.;.;.;.;.;.;.;.;.;.;.;.;.;.>.;.;.;.;.",
"^ 0 + % : , ; @ * s N F [ Z b c k u r q 3 ; * * * * * ; * % % * ; : , ; * : 3 r y +   o f c l 3 < 7 < : , r q q 9 3 * 3 r y r 0 3 : * @ @ + +         + @ , , * + r ;.;.;.;.;.;.;.;.;.;.;.;.;.-.",
"/ 7       . .               . . . .       . .   .                                         . .     . . . .   . . . . . . . . X o X o X X + X + % @ @ o   . .       w ;.;.;.;.;.;.;.;.;.;.-.;.;.=.",
"/ ( ^ m * + % @ @ $ + X                                                                   . .   . X X . X . . o o X X X o o + @ + + + + ; @ + * $ * @ + , @ * B +.;.;.;.;.;.;.;.;.;.;.;.;.;.-.=.",
"/ ( ( [ { [  . . . .X. .^ L P b l y * + $ @ @ @ @ @ + @ @ @ @ $ % % % + @ 0 i V K $ * W 7   6 y s U V q M / ' W V k A V m N M N N N N W ;.%.*.%.*.+.;.;.;.;.;.;.;.;.;.;.;.;.;.;.;.;.;.;.;.;.;.=.",
"/ ( ( ] [  .|  .O.+.O.+. .+. .+.+.X.o. .} / A F K H F Z V N m m m m m u f b u c b @ : %.%.0   3 f F +.y q ) N N k s l c V A F Z W _ o.*.%.%.+.W F N  .;.;.;.;.;.;.;.;.;.;.;.;.;.;.;.-.;.-.&.-.=.",
"^ ( ] ] [  .|  .+. .+.+.o. . . .+.X.W K ( W k y f N F U [  .+. .^ W b y V m c L A @ * _ V Z 3   , m L A : f L L m N v l *.%.K N W ( V +.+.I c b V K K *.;.;.;.;.;.;.;.;.;.;.;.;.;.;.%.;.&.&.&.%.",
"/ / ( [ | { [  . .O.O.+.+... .o.+.+.P h k b b 0 3 7 r s l m b c A U m M b u N W U @ @ m b b N *   , c W q : W %.V F m s +.K m P ' B B K N f s b B M c U %.%.;.;.;.;.*.;.;.;.;.*.;.*.;.%.%.%.&.%.",
"^ _ ] ( { { |  . .+. . . . . .o.}  . .Z c f s u y r r q r y q 6 r 7 y Z B x V m b X $ r k c k b 7   @ u z ; u %.m I Z p V M L [ N c m m c c s y y k m K *.%.*.%.;.%.;.*.;.;.;.;.*.*.%.%.%.%.%.%.",
"/ ( _ [  .{ } X.+. . . ...o...+.X. . .[ b c c k f r y u y y u 3 * * 3 0 * < m N 3   y r y r u s s : . + u 0 ; K m W L r f K ! l a m V s b f r 1 > r Z N L %.%.*.;.%.*.*.*.;.;.*.%.%.%.%.%.%.%.#.",
"/ / ] [  .{  . .X.+.+.+.+.o. .} X. .X.+.R V n b l y t y p u u y * $ < < ; * % 3 @   c m r 3 3 p k 7 % X X p : y [ %.K 5 p V s a V ( p y k u 3 3 ; r m m ' %.*.%.*.;.*.%.%.*.%.%.*.%.%.%.%.%.%.#.",
"/ ( ( [ [ [  .| X.+.+.X.X.o.+... . ... . .o./ K N m k p u s f t , : ; % < r 3 ; X o r c n y 3 : r m 0 ; X . 3 5 I %./ y f s c W +.A 6 y u r 8 1 3 b M L %.%.%.%.*.%.%.%.%.*.%.*.%.%.%.+.%.%.#.+.",
"^ ( ( [ [ [  .[  ...+.+. . .X. . . .....+.....} } U V m c s y 0 u a 6 * * : r r O o 3 r f k c r : y V r * + . ; s +.+.f f s K %.S c 3 r s y 6 5 a m C +.%.+.%.%.%.%.*.%.%.%.%.%.%.%.%.+.%.%.#.+.",
"/ / / [ [ [  .}  .....}  . . . .o.}  . . . . . .o.+.../ F m u 8 s f y r 3 * : , X X , 3 y u y k f 0 r l 3 < $   $ H +.c s N F K m d , f s q q y k M [ +.%.#.%.+.+.*.%.%.%.%.%.%.+.%.%.+.+.+.+.+.",
"^ / _ [ [ [ }  . . . . . . . . . .}  . .[ }  .} o. .o.o.o.I c n b u < 6 y p y < . o r 3 1 q u u k c r 0 s 3 3 $   3 +.m p V B V m y 0 f u r s u n P #.%.#.#.+.+.+.%.+.+.+.+.%.%.+.%.%.+.+.+.+.+.",
"^ ( ( [ [ [ [  .}  . . . ...}  .[ } } [  . . .[ } }  .}  .N V o.^ c 5 6 y f v r + + 7 u a 7 7 s c s c u u s 6 y ,   , A u Z m ' K y r y p s s s C #.+.+.#.#.%.%.%.+.#.#.#.#.+.+.+.+.+.+.+.+.+. .",
"^ ( ( ' [ [ [ [ }  . . . .}  .} } [  .[ }  .} }  . . . .H m R o.A k f B b q q 7 @ % s q r f s 7 q c s k s s a 6 y o . P p F m I m y w f a b u c ' #.+.+.#.#.+.%.+.+.#.#.#.#.+.+.#.+.+.+. .+.+. .",
"^ ^ ( ( _ [ '  . . . .}  . . .) [ } } } } } }  . .} [ / m A  .A c f V m u v Z y o + f c l p f b s p l s s b m t 0 3   l V W N Z m m u f v k p P +.+.+.+.#.#.#.#.+.#.#.#.#.+.+.o.+.+.+. . . . . .",
"! ^ / [ [ [ [ [ }  .} }  .o. .[ }  .} } } } }  .}  .} A m ^ A c f n y 8 N o. .q   5 s u s k f u k c s f s l v N w r . + +.+.F b m V u k m p c #.#.+.+.+.#.#.#.#.+.#.#.+.+.+.+...o.+. .+. . . . .",
"W W / ( _ [ [ [ [  . . .}  .o. .} } } }  .} }  .} } } ^ R Z m f c 0 6 V B a 6   w o.^ B d u p b f p k m m F m Z U s +   f +.U m R U l n v p I +.+.+.+.+.+.+.+.#.+.o.+.o.o.o.o.o.....}  . . .} [ ",
"^ ^ ^ ( [ [ [ [  .}  .} }  . .} [ } } [  .} } } } [ } } Z m V l r ; 5       + q  . .o. .} K m m m b k m A } W M V K y . X / [ m L P b F N m o.+.+.+.+.+.+.+.#.+.o.+.+.o.o.o. .....}  .} [  .[ [ ",
"W ^ ! ( ( ' [ [ [ } }  . . . .} } } } } } [ } [ }  . .Z n A ,       o ; a P  .o.o.o.o. .o.o.o.( F U Z m F o.o.^ B A Z 5   * o.V L W B +.R K o.+.+.+.+.+.+.+.+.+.+.o.o.o...} } ..} } [ } } [ [ ) ",
"W W ~ / / ( ' } [ [ } } }  ... . ... .} } }  .[ [ } A n n *   @ ; s R  . . .o. .o.o.o.o.o. .o...o. .o.~ o.+.+.+.[ ' o.^ X . ( +.+.+.+.+.+.o.o.o.+.+.+.o.+.#.+.+.+. ... .}  .} } } [ ' ' [ ( ) ( ",
"W W ^ ^ ^ ^ ( ' [  . .[ }  . . .} } } } [ [  .[ ' L m f   O r y h F } }  .}  . . .}  . . ... ...o.o.o.o.o.+.o.o.o.+.+.+.m   f o.+.o.o.o.+.+.+.o.#.+.+.+.+.o.o.o.o... . .} } } [ [ ' ) ( ' ( ( ( ",
"W W ~ ^ ^ ~ / ( [ [ }  .} ..}  . . .}  .} } } [ } F <   + s h N F } } } }  . . . . . ...o.o.o...o. . . .o.o.o.o.o.+.o.o.[ X $ I o.+.+.o.o.o.+.+.+.#.+.o.+.o.+.#.o...} } } } [ [ ' ( ' ' / / / / ",
"T W W ! ~ / / ( ' [ } } }  .}  . . . .} } } } [ V +   : n n F [ [ } } } } }  .} }  . . . . .o. .o.o.o. .o.o.o.+.o.o.o.o.o.<   0 o.o.o.o.o.o.+.o.o.+.+.o.+.o.o.o.o...} } [ } ' ' ' ( ) / / ^ ~ ^ ",
"T W W ^ ^ / ( ( ' [ } [ }  . .[ }  .} } } [ } q   o r m F } [ } } [ } [ } } }  .}  .} } } } }  .o. . . .o.o...+.o.o.o.o.+.o.u   3 o.o...+.o.o.o.o.o.+.o.+.o.o.o.....} } } [ ' ' ) ( ( ^ / W W W ",
"U T W W ! ^ ^ / ' [ [ [  .}  .} }  .} } [ } q   ; b V ~ [ [ [ } } [ } } } [  . .} }  .}  .}  . . .}  . .o. ..... . .o. .o.o. .<   q o.o.o.o.o.o.+.o.+.+.o....... .} } } } ' ) ' ' / / ~ ~ W W W ",
"I U R W W ^ ^ / ( / ( [ } } } } } } }  .[ 5   q ! ~ } } [ [ } [ } [ [ } } [ } } } } }  .} } } }  . .}  .o. ..... .o.o.o...o.o.o.q   p o.+.o.o.o.o.o...o.o.....} ..} } ' ' ) ) ) / / / ~ ! W W W ",
"P U Y R W W ^ ^ / ( ( ' ' ' } } [ }  .V @   q } [ ' [ [ } } } } [ [ } } } } [ [ ' } } }  .} [ }  .}  . ..... ...o..... ..... ... .y s o.o.o.o.o.o.o. . .} } } } } [ [ ' ' / / ^ / ^ ~ ~ W W R R ",
"L I Y Y W W ^ ^ / / ( ( ( ) [ [ }  .V   @ V [ [ [ } [ [ [ [ [ } } ' } [ } } } ' ' }  .} } [ } }  .} } ..o... .} }  .o. .o.o.o. .o.o.....o.o.o.+.....} } } } } } ' ' [ ' / ) / / ~ / ! ! W W U U ",
"K L U U W W W ~ ^ ^ / / ( ' ' ' [ } c s [ } } } } [ ' [ ' ' } ' } } [ [ } } } } } } } } ' ' } } } } } ...... .} ....} o.o. ...o.o.o.o.o...o...o...}  . .} } } } } ' ' ) / / ~ ~ ~ ! ~ W R Y Y U ",
"K L U U U R W W ~ ^ ^ / ( ' ' ' ' ' [ } [ [ } } } [ } [ [ [ [ [ } } [ [ } } } } } } } } ' ' } } } }  .} }  . ... .....}  . .} o.....o. .o...........} ' ' ' ' ' ' ' / / / ~ ~ ~ ~ W R W Y U U I ",
"G K L I U U W W ! ! ^ ^ / / ( ( ' ) [ [ [ [ } } } [ [ [ [ [ [ } } }  .[ [ [ } } } } [ } [ ' } } ' } } } }  .} } } } } ..} } }  ... .o.o.o.....o. ...} ' ' ' ' ) / / ~ ~ ~ Q Q Q W R R Y U U L L ",
"F K K P I U Y R W ! ^ ^ / / / ( ) ( ( ' [ [ } [ [ } [ } } [ ' [ ' } [ [ } [ [ ' [ [ [ [ } } [ ' [ [ } } } } } } } } } } } } } } } } ..o....... . .} } } ' ' ) / ) / ~ ~ Q Q Q R R R U U U P K K "
};
