/* XPM */
static char *_ac391d6d22241ecdb1cbf0affbc538fQmgrFbvkg7NA1ji5[] = {
/* columns rows colors chars-per-pixel */
"64 64 241 2 ",
"   c #030303",
".  c #0C0C0C",
"X  c #0A0707",
"o  c #140B07",
"O  c #131313",
"+  c #1B1B1B",
"@  c #18181B",
"#  c #10110F",
"$  c #3A140D",
"%  c #251A18",
"&  c #260E0E",
"*  c #1E221B",
"=  c #0D310B",
"-  c #382618",
";  c #3C220B",
":  c #0D0C27",
">  c #151526",
",  c #2B1A21",
"<  c #242424",
"1  c #2B2B2B",
"2  c #2A2C26",
"3  c #352726",
"4  c #323A2A",
"5  c #343434",
"6  c #3C3C3B",
"7  c #35312E",
"8  c #57170C",
"9  c #71180A",
"0  c #502D14",
"q  c #6F2E16",
"w  c #462C28",
"e  c #683027",
"r  c #590D2D",
"t  c #375734",
"y  c #37472C",
"u  c #356B2E",
"i  c #1D6919",
"p  c #475933",
"a  c #4B472F",
"s  c #635031",
"d  c #49743A",
"f  c #4A6D3C",
"g  c #657A33",
"h  c #727E3C",
"j  c #524201",
"k  c #71324D",
"l  c #4F2951",
"z  c #444444",
"x  c #4C4C4C",
"c  c #4C4247",
"v  c #535353",
"b  c #5C5C5C",
"n  c #53494C",
"m  c #64584C",
"M  c #53664A",
"N  c #647257",
"B  c #646464",
"V  c #6C6C6C",
"C  c #6D6766",
"Z  c #747474",
"A  c #7B7B7B",
"S  c #767D73",
"D  c #716E6A",
"F  c #247365",
"G  c #932918",
"H  c #9E3726",
"J  c #A81F09",
"K  c #D12A0E",
"L  c #FE2602",
"P  c #F92B09",
"I  c #FD300E",
"U  c #FC3413",
"Y  c #FB3A1B",
"T  c #E82F10",
"R  c #FD3F20",
"E  c #927811",
"W  c #AC4636",
"Q  c #925219",
"!  c #F77A02",
"~  c #EB760E",
"^  c #FB4628",
"/  c #FA5136",
"(  c #D15B27",
")  c #AD235D",
"_  c #FF036E",
"`  c #FF0B72",
"'  c #FF0770",
"]  c #FE1478",
"[  c #FF217F",
"{  c #CA2E70",
"}  c #887069",
"|  c #965B60",
" . c #FA5C42",
".. c #E85E46",
"X. c #F76C56",
"o. c #DB6C5A",
"O. c #22A51C",
"+. c #498233",
"@. c #4D8639",
"#. c #4F883B",
"$. c #51893C",
"%. c #53873F",
"&. c #59903F",
"*. c #16FE0A",
"=. c #1BF211",
"-. c #24FE19",
";. c #36FF2C",
":. c #43FC3A",
">. c #588D45",
",. c #528E46",
"<. c #678349",
"1. c #6A9959",
"2. c #6A8D51",
"3. c #75A653",
"4. c #738D65",
"5. c #7DA573",
"6. c #78A469",
"7. c #4AA846",
"8. c #7DE278",
"9. c #89AB11",
"0. c #BF9B0A",
"q. c #E09D16",
"w. c #FFCC02",
"e. c #FFCE0A",
"r. c #FCCE13",
"t. c #FFD21E",
"y. c #FFD015",
"u. c #FFD429",
"i. c #FCD431",
"p. c #83B15E",
"a. c #81A559",
"s. c #87AA76",
"d. c #94B76F",
"f. c #A2914B",
"g. c #FC8E7C",
"h. c #C89C59",
"j. c #9AC46E",
"k. c #9DC572",
"l. c #9FC17A",
"z. c #A3C879",
"x. c #F3D14B",
"c. c #F6DB6F",
"v. c #323085",
"b. c #0A03FF",
"n. c #0A04FF",
"m. c #140EFF",
"M. c #1F0CF7",
"N. c #1B15FE",
"B. c #1D19EB",
"V. c #221DF8",
"C. c #2924FF",
"Z. c #3834FF",
"A. c #2E34FD",
"S. c #2925D6",
"D. c #5D0CD3",
"F. c #413EF2",
"G. c #5825DD",
"H. c #3753FA",
"J. c #2E77F2",
"K. c #4A49FE",
"L. c #5751FE",
"P. c #6965FE",
"I. c #7774FB",
"U. c #9C28BA",
"Y. c #9B19BB",
"T. c #FF2984",
"R. c #FC3693",
"E. c #937491",
"W. c #9F6793",
"Q. c #F75195",
"!. c #FE74AA",
"~. c #AF34CE",
"^. c #A016C3",
"/. c #D817EA",
"(. c #CE0AFF",
"). c #CD06FF",
"_. c #D41AF7",
"`. c #D425FD",
"'. c #D736FF",
"]. c #A95CD8",
"[. c #DA4AFE",
"{. c #DE5CFF",
"}. c #E458EE",
"|. c #E377FE",
" X c #E062FF",
".X c #D85CDF",
"XX c #10DFBB",
"oX c #03FFD2",
"OX c #0BFED3",
"+X c #17FFD6",
"@X c #0BF3CA",
"#X c #27FFD9",
"$X c #38FFDC",
"%X c #5BFFE2",
"&X c #64FEE3",
"*X c #76FFE7",
"=X c #40FFDD",
"-X c #229BE9",
";X c #838383",
":X c #8B8B8B",
">X c #848A89",
",X c #939393",
"<X c #9C9C9C",
"1X c #94B687",
"2X c #94B489",
"3X c #A8B59A",
"4X c #ABABAB",
"5X c #A4A5A4",
"6X c #B5B5B5",
"7X c #BDBDBC",
"8X c #AEBCAE",
"9X c #A485AB",
"0X c #EB998B",
"qX c #FF8BBC",
"wX c #FF8EAE",
"eX c #EFB6AE",
"rX c #EEB29B",
"tX c #A9C987",
"yX c #AFD08A",
"uX c #B6D397",
"iX c #ACC896",
"pX c #A0DCA6",
"aX c #C2DBA7",
"sX c #C3D6BC",
"dX c #FFE990",
"fX c #A4A3DC",
"gX c #FF99C5",
"hX c #E385FB",
"jX c #F6AFCD",
"kX c #87F6E3",
"lX c #C3C3C3",
"zX c #CBCBCB",
"xX c #D3D3D3",
"cX c #DBDBDB",
"vX c #CCDCC6",
"bX c #CCFFF6",
"nX c #E4E4E4",
"mX c gray92",
"MX c #F4F4F4",
"NX c #FFFFFF",
"BX c #EAD9ED",
/* pixels */
"NXNXNXNXNXNXNXNXNXNXNXNXNXNXNXNXNXNXNXNXNXNXNXNXNXNXNXNXNXNXNXMXnXlX7XmXNXNXNXNXNXNXNXNXNXNXNXNXNXNXNXNXNXNXNXNXNXNXNXNXNXNXNXNX",
"NXNXNXNXNXNXNXNXNXNXNXNXNXNXNXNXNXNXNXNXNXNXNXNXNXNXNXMX:X1 1 1 < @ O 5 cXNXNXNXNXNXNXNXNXNXNXNXNXNXNXNXNXNXNXNXNXNXNXNXNXNXNXNX",
"NXNXNXNXNXNXNXNXNXNXNXNXNXNXNXNXNXNXNXNXNXNXNXNXNXNXNX<XO O < V A + . . 6XNXNXNXNXNXNXNXNXNXNXNXNXNXNXNXNXNXNXNXNXNXNXNXNXNXNXNX",
"NXNXNXNXNXNXNXNXNXNXNXNXNXNXNXNXNXNXNXNXNXNXNXMX7X,XA 6 O 5 z x v X X . v ;X4XxXMXNXNXNXNXNXNXNXNXNXNXNXNXNXNXNXNXNXNXNXNXNXNXNX",
"NXNXNXNXNXNXNXNXNXNXNXNXNXNXNXNXNXNXNXNXNXlXz O X                             X . 1 :XMXNXNXNXNXNXNXNXNXNXNXNXNXNXNXNXNXNXNXNXNX",
"NXNXNXNXNXNXNXNXNXNXNXNXNXNXNXNXNXNXNXcX6 X     X . @ + < 1 1 1 1 1 < < < @ . X       @ <XMXNXNXNXNXNXNXNXNXNXNXNXNXNXNXNXNXNXNX",
"NXNXNXNXNXNXNXNXNXNXNXNXNXNXNXNXNXNXcX<   X < f.x.x.i.i.u.u.u.t.t.t.t.t.t.t.t.i.h.s .   X z nXNXNXNXNXNXNXNXNXNXNXNXNXNXNXNXNXNX",
"NXNXNXNXNXNXNXNXNXNXNXNXNXNXNXNXNXMX6   . h.u.e.w.w.w.w.w.w.w.w.w.w.w.w.w.w.w.w.w.y.x.a X . lXNXNXNXNXNXNXNXNXNXNXNXNXNXNXNXNXNX",
"NXNXNXNXNXNXNXNXNXNXNXNXNXNXNXNXMXA X X f.e.e.e.0.j 0 E r.w.w.w.w.r.y.y.q.E 0.r.r.w.w.x.1 O ,XNXNXNXNXNXNXNXNXNXNXNXNXNXNXNXNXNX",
"NXNXNXNXNXNXNXNXNXNXNXNXNXMX6Xb 5 @ X + x.w.e.0.o       a r.e.y.t.c.,Xz O @ @ E t.u.u.dX4X@ 1 lXxXMXNXNXNXNXNXNXNXNXNXNXNXNXNXNX",
"NXNXNXNXNXNXNXNXNXNXNXNXNXA = = @ . X c eXg.0Xa   6 6 X X W.T.Q.wX6XO   Z 7X6 % !.!.qXgXBXB . + @ 1 <XNXNXNXNXNXNXNXNXNXNXNXNXNX",
"NXNXNXNXNXNXNXNXNXNXNXNXNXa 9.9.x . . | T.` [ ,   <X7X@   k ` _ ` jX<   V ,X1 & _ _ _ _ R.7X+ @ 6 O 1 MXNXNXNXNXNXNXNXNXNXNXNXNX",
"NXNXNXNXNXNXNXNXNXNXNXNXNXm ! q.v . . E.Q.] ` k   z Z @   k ' _ ` Q.7       . | _ _ _ _ T.C + O h.Q + mXNXNXNXNXNXNXNXNXNXNXNXNX",
"NXNXNXNXNXNXNXNXNXNXNXNXNX} ! ! z @ . :XqXT.] Q.X         { ] ` ` T.{ ) r r ) ] ] ` ` T.] c < < q.~ % cXNXNXNXNXNXNXNXNXNXNXNXNX",
"NXNXNXNXNXNXNXNXNXNXNXNXNX4X! ! 2 @ . <XqXT.[ !.b X . 3 ) ` ` ` ` ` ` ' ` ` ` _ ] R.R.gXjXn < 5 q.! 0 cXNXNXNXNXNXNXNXNXNXNXNXNX",
"NXNXNXNXNXNXNXNXNXNXNXNXNXmX! ! - @ # 9X[.`.`.`.`.`.`._././././._./././././././._._.[.|.[.l < @ ( ! q cXNXNXNXNXNXNXNXNXNXNXNXNX",
"NXNXNXNXNXNXNXNXNXNXNXNXNXNX~ ~ - @ . ~.(.(.(.(.(.(.(.(.(.(.(.(.(.(.(.(.(.(.(.(.(.(.(.).).l + . s Q - mXNXNXNXNXNXNXNXNXNXNXNXNX",
"NXNXNXNXNXNXNXNXNXNXNXNXNXNXm ; O + . W.'.[.{.}.}.|.|.hXhX.X].~.U.U.U.Y.^.~.[.{.{.{. X|.|.E.< . @ @ B NXNXNXNXNXNXNXNXNXNXNXNXNX",
"NXNXNXNXNXNXNXNXNXNXNXNXNXNXZ X X + O v ].G.D.D.D.L.V.I.6 X           X O V P.C.Z.C.C.C.I.6X@ 1 4XlXMXNXNXNXNXNXNXNXNXNXNXNXNXNX",
"NXNXNXNXNXNXNXNXNXNXNXNXNXNXzX6 . @ + 1 M.b.b.b.b.b.b.C.v.: : : > > @ @ x BXC.b.b.b.b.b.m.v.O :XNXNXNXNXNXNXNXNXNXNXNXNXNXNXNXNX",
"NXNXNXNXNXNXNXNXNXNXNXNXNXNXNXNXv . 1 @ G.b.b.b.b.b.b.m.m.m.m.m.N.N.N.B.B.V.m.n.m.m.m.n.S.: z mXNXNXNXNXNXNXNXNXNXNXNXNXNXNXNXNX",
"NXNXNXNXNXNXNXNXNXNXNXNXNXNXNXNX5XO 1 . z fXL.K.H.A.F.P.P.P.P.P.L.K.K.H.J.-XJ.Z.Z.Z.Z.F.> < zXNXNXNXNXNXNXNXNXNXNXNXNXNXNXNXNXNX",
"NXNXNXNXNXNXNXNXNXNXNXNXNXNXNXNXMX1 @ 5 . B mXbX#X+X#X$X%XkX*X%X=X#X+XOXoXoX+XbXNXNXlX< O ,XNXNXNXNXNXNXNXNXNXNXNXNXNXNXNXNXNXNX",
"NXNXNXNXNXNXNXNXNXNXNXNXNXNXNXNXNXV . z 1 . 6 8X&X$X#X+XOXOXoXoXoXoXoXoXoXoXoX&XcXZ < O Z MXNXNXNXNXNXNXNXNXNXNXNXNXNXNXNXNXNXNX",
"NXNXNXNXNXNXNXNXNXNXNXNXNXNXNXNXNXxX1 . 6 6 . @ 5 b >X8XkX&X+XoXoXoXOXOXOX@XXXF @ . + A MXNXNXNXNXNXNXNXNXNXNXNXNXNXNXNXNXNXNXNX",
"NXNXNXNXNXNXNXNXNXNXNXNXNXNXNXNXNXNXzX5 . @ < @ O . . @ + < 5 5 6 6 5 < O . . . . @ <XNXNXNXNXNXNXNXNXNXNXNXNXNXNXNXNXNXNXNXNXNX",
"NXNXNXNXNXNXNXNXNXNXNXNXNXNXNXNXNXNXNXmX;X5 @ # . . . . . . . . X X X X . . . . @ 5 zXNXNXNXNXNXNXNXNXNXNXNXNXNXNXNXNXNXNXNXNXNX",
"NXNXNXNXNXNXNXNXNXNXNXNXNXNXNXNXNXNXNXNXNXMXcX<XV v 5 < 6 O O @ @ .     < 5 v ;XlXMXNXNXNXNXNXNXNXNXNXNXNXNXNXNXNXNXNXNXNXNXNXNX",
"NXNXNXNXNXNXNXNXNXNXNXNXNXNXNXNXNXNXNXNXNXNXNXNXnX4X@ . x . ;XcXcX6     zXNXNXNXNXNXNXNXNXNXNXNXNXNXNXNXNXNXNXNXNXNXNXNXNXNXNXNX",
"NXNXNXNXNXNXNXNXNXNXNXNXNXNXNXNXNXNXNXNXNXNXNXNXb       + . b A Z O     4XNXNXNXNXNXNXNXNXNXNXNXNXNXNXNXNXNXNXNXNXNXNXNXNXNXNXNX",
"NXNXNXNXNXNXNXNXNXNXNXNXNXNXNXNXNXNXNXNXNXMXnXxX5                       + 1 < < + v mXNXNXNXNXNXNXNXNXNXNXNXNXNXNXNXNXNXNXNXNXNX",
"NXNXNXNXNXNXNXNXNXNXNXNXNXNXNXNXNXNXNXNXlXz @ @ X                         @ < 3 8 & ;XNXNXNXNXNXNXNXNXNXNXNXNXNXNXNXNXNXNXNXNXNX",
"NXNXNXNXNXNXNXNXNXNXNXNXNXNXNXNXNXNXNXzX2 . 1 1 X * p p p p p p p p y 4 v nXz e P K - cXNXNXNXNXNXNXNXNXNXNXNXNXNXNXNXNXNXNXNXNX",
"NXNXNXNXNXNXNXNXNXNXNXNXNXNXNXNXNXNXmX6 & W g.x X N k.j.j.k.k.k.k.j.j.d.l.aXD & T L 8 b MXNXNXNXNXNXNXNXNXNXNXNXNXNXNXNXNXNXNXNX",
"NXNXNXNXNXNXNXNXNXNXNXNXNXNXNXNXNXNX;X$ K I  .% X y z.z.s.2.2.2.<.<.2.a.d.j.z.@ G I G % lXNXNXNXNXNXNXNXNXNXNXNXNXNXNXNXNXNXNXNX",
"NXNXNXNXNXNXNXNXNXNXNXNXNXNXNXNXNXcX0 K I / | . . 5 yXz.b * i O.O.O.,.2 4 z.z.5 o 9 K G C NXNXNXNXNXNXNXNXNXNXNXNXNXNXNXNXNXNXNX",
"NXNXNXNXNXNXNXNXNXNXNXNXNXNXNXNXNXV J P U ^ 3 @ @ 5 yXz.B u -.*.*.*.;.t @ tXz.b   o K K q nXNXNXNXNXNXNXNXNXNXNXNXNXNXNXNXNXNXNX",
"NXNXNXNXNXNXNXNXNXNXNXNXNXNXNXNXmXw T U I ( # z + 5 yXz.4 i *.=.8.:.*.+.O d.k.3X    0 K 9 ;XNXNXNXNXNXNXNXNXNXNXNXNXNXNXNXNXNXNX",
"NXNXNXNXNXNXNXNXNXNXNXNXNXNXNXNX:X8 P I U e . O X 1 uXk.4 t -.*.:.-.*.7.. s.k.aX.   X h.9 w MXNXNXNXNXNXNXNXNXNXNXNXNXNXNXNXNXNX",
"NXNXNXNXNXNXNXNXNXNXNXNXNXNXNXNX6 9 L P ..# O .   @ uXk.4 x pX-.-.-.;.5.. 4.k.aX+     W P q 4XNXNXNXNXNXNXNXNXNXNXNXNXNXNXNXNXNX",
"NXNXNXNXNXNXNXNXNXNXNXNXNXNXNXcX+ J L Y n . @ @   O yXk.* @ 6 t u t t 1 . 4.z.uX1     $ o.} a x :XMXNXNXNXNXNXNXNXNXNXNXNXNXNXNX",
"NXNXNXNXNXNXNXNXNXNXNXNXNXNXMXZ X G ^ 0X@ < @ 1 X O tXz.1 O @ + + @ @ O @ 3Xz.uX2   . + x z < + O 5XNXNXNXNXNXNXNXNXNXNXNXNXNXNX",
"NXNXNXNXNXNXNXNXNXNXNXNXNXnXz .     . b . 6 @ w X # z.z.iXtXuXuXuXuXiXtXtXz.j.uX1   O :X# . O Z @ 7 nXNXNXNXNXNXNXNXNXNXNXNXNXNX",
"NXNXNXNXNXNXNXNXNXNXNXNXNXV . 1 1 .   X . V @ z   # aXd.p.p.p.p.3.3.>.&.$.$.$.%.N . O zXZ + . } | 3 ;XNXNXNXNXNXNXNXNXNXNXNXNXNX",
"NXNXNXNXNXNXNXNXNXNXNXNXmX< + rXX.0X.   @ 4X@ 6   . 5.#.#.$.$.$.$.#.$.>.>.1.2.+.g x . 5XMXzX@ o.U H 6 NXNXNXNXNXNXNXNXNXNXNXNXNX",
"NXNXNXNXNXNXNXNXNXNXNXNX4X. x / L X..   1 cX@ 1   # 1.+.d d d d f M N S ;Xb f +.g B . :XNXNX5 | U K < mXNXNXNXNXNXNXNXNXNXNXNXNX",
"NXNXNXNXNXNXNXNXNXNXNXNXZ . A R L ..X   b MX< < O t >.+.y @ @ O . . X X . . u +.g Z . ;XNXNX1 7 Y Y O 5XNXNXNXNXNXNXNXNXNXNXNXNX",
"NXNXNXNXNXNXNXNXNXNXNXNXB . ,X^ L (     ;XNX5 + 6X1.@.1.4X7XlX5 1 A @ 5 V ;X%.+.g ;X. V NXNX1 5 ^ R # B NXNXNXNXNXNXNXNXNXNXNXNX",
"NXNXNXNXNXNXNXNXNXNXNXNXB . <X^ L ..% . 5XNXx O 6X1X#.s.5.6.iX1 1 cX@ 5 vXs.+.+.g ,X. B NXNXx < / U $ v NXNXNXNXNXNXNXNXNXNXNXNX",
"NXNXNXNXNXNXNXNXNXNXNXNXB . ,X .P g.5 + nXNXV . ;X3X#.#.#.+.>.2 @ V O + 1.#.+.+.g ;X. B NXNXv 5 / U $ V NXNXNXNXNXNXNXNXNXNXNXNX",
"NXNXNXNXNXNXNXNXNXNXNXNXZ . Z X.I X.< 1 NXNX,X. b 1X#.#.>.#.s.5 . . . < >.+.+.+.h v . :XNXNXz x ^ T % 7XNXNXNXNXNXNXNXNXNXNXNXNX",
"NXNXNXNXNXNXNXNXNXNXNXNX<X. b  .I X.@ 6 NXNXxX@ 5 s.#.#.>.$.1X2X4.2.4.6.$.+.+.+.<.2 @ cXNXMX1 z ^ T 6 MXNXNXNXNXNXNXNXNXNXNXNXNX",
"NXNXNXNXNXNXNXNXNXNXNXNXlX@ 6 ^ U o.@ x NXNXNX1 @ 3X1.1.5.$.#.$.$.#.#.$.$.+.+.+.%.@ 6 NXNXnX+ 5 H G :XNXNXNXNXNXNXNXNXNXNXNXNXNX",
"NXNXNXNXNXNXNXNXNXNXNXNXMX1 % Y Y o.O x NXNXNXx . b 5X5X6X3X1X1X1X2XiXsXsX6.1.s.M . V NXNXmXZ 1   O mXNXNXNXNXNXNXNXNXNXNXNXNXNX",
"NXNXNXNXNXNXNXNXNXNXNXNXNXv & T X.} . Z NXxX<XV . X X . . . . . . . . O @ @ @ O . + xXNXNXNXNXA 1 4XNXNXNXNXNXNXNXNXNXNXNXNXNXNX",
"NXNXNXNXNXNXNXNXNXNXNXNXNX6XO e eX< @ 6Xb @ . .                                 X 6 6XMXNXNXNXNXNXNXNXNXNXNXNXNXNXNXNXNXNXNXNXNX",
"NXNXNXNXNXNXNXNXNXNXNXNXNXMX5 . < . b z X . @ X   . B A A A :X6XxXxX6X,XZ v 1 .     X 5 xXNXNXNXNXNXNXNXNXNXNXNXNXNXNXNXNXNXNXNX",
"NXNXNXNXNXNXNXNXNXNXNXNXNXNX4X+ @ v A X   . .     X :XNXNXNXNXNXNXNXNXNXNX;X. X         5 MXNXNXNXNXNXNXNXNXNXNXNXNXNXNXNXNXNXNX",
"NXNXNXNXNXNXNXNXNXNXNXNXNXNXNXnXxXMX<   5 sXA @ 1 . ;XNXNXNXNXNXNXNXNXNXNX1 X O b ;X5   X 4XNXNXNXNXNXNXNXNXNXNXNXNXNXNXNXNXNXNX",
"NXNXNXNXNXNXNXNXNXNXNXNXNXNXNXNXNXNX.   <XmXxXA x O 4XNXNXNXNXNXNXNXNXNXNX@   6 NXMXA     <XNXNXNXNXNXNXNXNXNXNXNXNXNXNXNXNXNXNX",
"NXNXNXNXNXNXNXNXNXNXNXNXNXNXNXNXNXNX@   @ b V 5X@ 1 mXNXNXNXNXNXNXNXNXNXNXv   X 5 V <   + nXNXNXNXNXNXNXNXNXNXNXNXNXNXNXNXNXNXNX",
"NXNXNXNXNXNXNXNXNXNXNXNXNXNXNXNXNXNXV X   X 1 @ @ ,XNXNXNXNXNXNXNXNXNXNXNXmX5 X       1 cXNXNXNXNXNXNXNXNXNXNXNXNXNXNXNXNXNXNXNX",
"NXNXNXNXNXNXNXNXNXNXNXNXNXNXNXNXNXNXmX:X1 @ @ < ,XMXNXNXNXNXNXNXNXNXNXNXNXNXMX5Xx 5 V mXNXNXNXNXNXNXNXNXNXNXNXNXNXNXNXNXNXNXNXNX",
"NXNXNXNXNXNXNXNXNXNXNXNXNXNXNXNXNXNXNXNXNXcXxXMXNXNXNXNXNXNXNXNXNXNXNXNXNXNXNXNXNXNXNXNXNXNXNXNXNXNXNXNXNXNXNXNXNXNXNXNXNXNXNXNX"
};
