/* XPM */
static char *_71a50e781714898cab20c5e788e971aJfnPpva0G8ByAnFp[] = {
/* columns rows colors chars-per-pixel */
"64 64 184 2 ",
"   c #0E0901",
".  c #120C03",
"X  c #140E08",
"o  c #161002",
"O  c #1A1304",
"+  c #16110A",
"@  c #1A150A",
"#  c #1E180C",
"$  c #1F1A12",
"%  c #221804",
"&  c #221C0C",
"*  c #231D13",
"=  c #2D230B",
"-  c #262015",
";  c #2A2415",
":  c #262018",
">  c #2B251A",
",  c #2E2819",
"<  c #302710",
"1  c #312B1C",
"2  c #342E20",
"3  c #5C3D01",
"4  c #654403",
"5  c #684502",
"6  c #6D4A03",
"7  c #644409",
"8  c #6B4B0D",
"9  c #7B4600",
"0  c #734E03",
"q  c #7C4C02",
"w  c #734E09",
"e  c #6F5001",
"r  c #755303",
"t  c #7B5503",
"y  c #7D5A02",
"u  c #74510A",
"i  c #7D550B",
"p  c #7D5A0B",
"a  c #725110",
"s  c #7A5612",
"d  c #7D5A13",
"f  c #824F02",
"g  c #835502",
"h  c #8A5700",
"j  c #835C03",
"k  c #8A5D03",
"l  c #83530C",
"z  c #8A550B",
"x  c #825D0B",
"c  c #8D5C0B",
"v  c #925F01",
"b  c #915E0A",
"n  c #835D13",
"m  c #905C12",
"M  c #856103",
"N  c #8C6303",
"B  c #8E6804",
"V  c #85620B",
"C  c #8B640A",
"Z  c #8E690C",
"A  c #926503",
"S  c #996602",
"D  c #956A03",
"F  c #9A6D03",
"G  c #93650A",
"H  c #99660A",
"J  c #946B0B",
"K  c #9A6D0B",
"L  c #977007",
"P  c #9D7203",
"I  c #96710C",
"U  c #9D720B",
"Y  c #9F780E",
"T  c #846212",
"R  c #8C6513",
"E  c #8C6913",
"W  c #85651B",
"Q  c #89651D",
"!  c #8F691A",
"~  c #946512",
"^  c #946B13",
"/  c #996C13",
"(  c #946D1B",
")  c #9B6E19",
"_  c #967114",
"`  c #9C7212",
"'  c #9D7815",
"]  c #95721D",
"[  c #9C7319",
"{  c #9E791B",
"}  c #A06E04",
"|  c #A06E0B",
" . c #A17503",
".. c #A47904",
"X. c #A87C06",
"o. c #A1750B",
"O. c #A8760E",
"+. c #A57A0B",
"@. c #A97D0C",
"#. c #A06C16",
"$. c #A27512",
"%. c #A87514",
"&. c #A57A13",
"*. c #A97D13",
"=. c #A2751B",
"-. c #A9761C",
";. c #A47B1B",
":. c #AA7D1A",
">. c #B27F14",
",. c #B27F1E",
"<. c #8D6823",
"1. c #9B6720",
"2. c #936E21",
"3. c #967220",
"4. c #9B7422",
"5. c #9C7921",
"6. c #A27623",
"7. c #A47B22",
"8. c #AB7E22",
"9. c #B07D26",
"0. c #AD820D",
"q. c #B0850D",
"w. c #B0840E",
"e. c #AD8210",
"r. c #AE8210",
"t. c #AC8012",
"y. c #AF8416",
"u. c #AD8213",
"i. c #AE8218",
"p. c #AA801E",
"a. c #AD821C",
"s. c #B18511",
"d. c #B28016",
"f. c #B18514",
"g. c #B48812",
"h. c #B58A15",
"j. c #B58915",
"k. c #B98D15",
"l. c #B38018",
"z. c #B08418",
"x. c #B1851B",
"c. c #B1861B",
"v. c #B68418",
"b. c #B3841C",
"n. c #B3861C",
"m. c #B2871F",
"M. c #B1851B",
"N. c #B8861A",
"B. c #B68B1A",
"V. c #B5891C",
"C. c #B58A1B",
"Z. c #B98D1A",
"A. c #B88D1F",
"S. c #B98D1C",
"D. c #BC9117",
"F. c #BD921B",
"G. c #BB901D",
"H. c #BC911D",
"J. c #A78221",
"K. c #A58022",
"L. c #AC8124",
"P. c #AE8125",
"I. c #AC8626",
"U. c #AE8322",
"Y. c #AF8924",
"T. c #AF8228",
"R. c #B48720",
"E. c #B28522",
"W. c #B58920",
"Q. c #B58B20",
"!. c #B78D20",
"~. c #B78E26",
"^. c #B68B22",
"/. c #B88C20",
"(. c #BA8E21",
"). c #B88B25",
"_. c #BA8D22",
"`. c #BC9020",
"'. c #BD9222",
"]. c #BE9129",
"[. c #C0951E",
"{. c #C19522",
"}. c #C29824",
"|. c #C49925",
/* pixels */
"/ b.9.l.#.>.%.-.N.>.d.*.z o.c F k F A F A F F A A k q f g q j * N A H z c z K c ,.v.O.:.-.K F k k A v h F A A F c c H b H $.C * ",
"M y x B ( I.7.] K.` 7.J C N j 0 0 N N N j N N j j j N 0 0 r e O j u T ^ 2.! i ^ C B B Z _ [ J N B M N G x N j N r N N N j y r : ",
"N N C o.8.~.p.` ;.Q.8.$.+.x A N P D D P P F P N A N D k g t 5 @ j x V @.=.L.p.^ o.U K +.*.!.+.J U G A D N A A D F P D P A j y > ",
"F k P 0.y.b.Z.G.$.x.}.+.o... . . .P F A k D A k g k k A j t y # D $.$.t.R.f.x.B.X.o.X.Q.A.(.Z.U G K G P  ... .F P F A F P A j ; ",
"A F o.s.h.).i.s.o.g.V.t.q.@...F  . . . . .F .. .D A F k k B t * A ` L.b.).(.F.'.@.o.t.=.(.x.x.*.+.@.K .. . .P F P D F  .D N r * ",
"P C o.o.U U '.Z.B.&.f.@.@...K F D F  . .P k P j D P P k F A x > P G $.=.'.B.A.f.'.B.s.C.b.x.u.U *.@.K K F P  .F  .P  .D P j t * ",
"A N P X.@.U t.:.(.|.t.@.@.K X. .C  . ...D P  .F D F F k D D y > A D G o.t.B.s.U Z.f.'.A.b.t.*.o.U B.o.o.U P D .. .F  . .P N j > ",
"P N o.+.+.+.X.0.0.'.h.t.@.G ..F  .F D  .N P P  . .P P P j j y * F N D A o.H 0.K K y.'.{.^.:.&.X.U &.o.D P ..X..... .k F D D t * ",
"F k K +.0.o.o.0.f.{.l.+.s.o.@...F P C  . .A P  . . .k F  .N y > P D D F G @.0.o.*.E.Q.{.'.'.i.t.:.o.K F X...U P  .P D D A N t : ",
"P A +.&.0.U o.@./ h.8.&.'.J ^ G P ..k j A D P P k ..P ..P N r > P N F k o.o.y.V.^.x.(.f.^.].B.&.o.+.U K o.X.0. .P  .F F D A r - ",
"U C 0.@.o.@.U &.A.}.L.h.(.f.G.U G G ..F D  .k P N P F P P A r - P N N D ..U @.:.(.&.{.[.).{.&.o.X...@.@.0.@.X.X.P  .D  .F j t > ",
"C C @.U $.&.y.h.|.j.{.V.|.B.(.o... . . .A P F D  ...P ..F N j * N N F P P K U q.{.$.h.y.B.:.U U  .D K o...X.o.+... .D D U N t > ",
"U C K U t.a.&.h.j.h.t./ a.a.B.&.t.o.+...F A N P F P P  .A t t ; A j D  .F +.K @.(.a.F.f.y.i.K D L K o.` K o.X.@.K F  . .P j y * ",
"L C U U i.;.&.K *.*.&.b.~ c.b.$.$.U U L U A P A N U A L A t r - D j N F L F U U *.p.i.c.;.y.A D C A A U o.L U K +.L D j t 0 6 - ",
"B M x J ' 7.;.K.' R ^ ( 7.;.{ Z x C t B N x r j j M M N N r r > M r t j N N C J ^ 4.I.` ;.[ C N t y Z C C J p I C N N j y 6 6 - ",
"= & & & @ O O O O @ & - ; @ @ o o o . . o . . o O o o o o o o - O o O O @ ; , 1 , , ; * & & & ; - & - - 1 - & & @ @ @ & # & & > ",
"F F z K G H H c O.1.=.m c l q o k A F S F k F k F A g f A A g A f  .F F G H K K H =.:.A.8.:.l o i z z F A F F } } A A A h A k g ",
"N N B J ( R ( ' V R { 4.2.s 8   _ t x N B N M j y N N t M j M N t N j N B M ^ ` p.7.&.p.Y.Z T + R y x C V I ` G C V U N B N N j ",
"A A K @.f.^ 6.6.6.E.=.^ 4.n r   x.A B D D D D P D P A F P A A j P A P F U @.$.` p.c.C.b.!.{ ^ @ &.I K K C ^ &.+.U &.J J L P N P ",
"N D o.u.&.` ^ &.T.b.:.^ [ n 6   i.B K F D P .. .A D F F  .F  .A P ..K P U K X.f.f.B.A.}.~.;.] + *.G U ~ G o.$.*.U X.X.U  .A A  .",
"F U @.'.A.o.*.*.B.V.E.A.^ 7.s   :.C J  .....F A P  . . ...F  .F  .F +.$.o.u.k.}.y.s.g.s.0.U _ + t.^ / (.~ J *.t.o.o.&.o.@.F F P ",
" .o.*.b.Q.h.L.*.Z.V.A.t.6.6.d   y.k A P D D  .P D F F ..D .. .P  .@.o.o.t.h.{.&.:.t.@.o.A G x @ @.{ B.6.=.*.h.t.K o.s.0.U K F  .",
"+.0.t.y.t.@.+.X.@.b.*.*.*.[ V   $.N  . .D  . .F  .F N j F P  .X.P o.K K *.Z.A.&.i.f.+.@.J U x # +.&./ j.Z.|.D.y.X...s.q.*.X.o.@.",
" .o.@.G +.@. .P  .X.@.@.+.U u   U D N  .D  . .F D F  . .P F A F  .F F F *.Q.b.&.l.(.o.o.o.I C + $.$./ @.y.'.h.0.X.U X.X.*.t.K D ",
"X.0.q.s.@.F F D F X.s.b.a.J V . U D F P P P P P ..A  . . .D  .P  . .F P 0.{.x.:.'.b.*.U o.K C + &.Y +.U b.&.0.@.K X. .X.o.t.@.o.",
"U $.*.s. .K  .D  .o.@.@.) K M . o.A  . .P A P F F k P A N  . .F D D P U 0.*.A.'.f.$.y.h.U J T X *.I / k.A.y.X.K K D  .U U @.X.X.",
"K $.u.+.P F  .A A X.o.o.J C r   U D F F D F ..P F A F N  . . .P D P ..F U o.@.i.f.E.:.` U C E + $.K a.E.*.s.@.0.K U K +.o.@.K U ",
"U U U o.K D  .A P  .X.k o.B r   L t P A g F D F A j k F k  .A P P F  ...F P o.o.U *.).y.+.` ! @ @.R =.) $.s.$.K U o.s.*.o.U  .F ",
"t.V.t.+.U A D F ..P @.X.@.V p . P F g N D P F k A k A A D P P  .F P D F D P U X.U i.L.*.` ^ W * I R U.u.8.L.E.b.&.&.s.x.h.@.K J ",
"C.&.U L A A F F F L U K &.] d . K C B j A D k A j x k D A A P N A A k P D N C N G U $.;.7._ E * U ;.!.&.&.7.=.i.:.$.` U =.$.&.y.",
"V x B N N N j j 0 x C i Z V 7 + k w x 0 j N N t i i x N N y j y M M j N t x j j x V R _ 4._ W $ J ] ;.` ;.( 4._ C ` R C Z J C ^ ",
"* - - - - - , & & O o . o o o . % o . o . o o . . . . o o o o O O o o O @ @ # & & & # @ - 1 , @ < 1 1 ; - , > > 2 1 1 , , ; * & ",
"g G ..H | H H k } K H K K b G A F A k S f F F S f 9 A S F k g & q f F A *._.-.K l.R.| } K | K K c m $.K ~ =.~ K | H F K o./ C & ",
"Z E J I _ J Z x J C x y x B j j j N M M j N B N w j B N N M 4 X j j j j N N M j x N I _ _ ;.;.` 7.^ [ 5.! Z ^ C I G Z B J V E @ ",
"K E.+.o.U o.t.t.@.K K A A B F A F A F N N N P D A U U A N y 5 + C j A D D A D D o.o.+.&.*.x.a.t.!.B.!.t.+.U &.+.*.X.K U $.` ] + ",
"*.c.a.o.t.s.Z.i.i.t.@.K A  .A F F F P F A  . . ...A P F F j t @ D D P F P ....K $.G @.o.h.a.}.y.V.!.&.@.o.` &.@.$.t.U o.t.U.] # ",
"*.&.t.y.~.B.{.a.V.t.o.D A  .F F P ..P  . .A D D D  .N P A N j * A F P  ...K +.*.a.i.@.s.y.|.].'.V.h.}.f.:.:.F.i.Z.y.*.f.C.I.Z * ",
"u.` :.j.B.h.&.y.F.g...D A D P D D P .. .F D F P D  .F  .P A M : P D  .o.U 0.B.f.-.{.F.t.B.'.'.^.i.h.Q.g.x.x.(.s.h.&.t.+.t.a.V * ",
"C.J $.k.y.f.f.B.A.0.U ..F A F D A P P D  .P A J D D P P P D y > F G o.X.@.E.(.h.8.t.x.*.x.A.;.x.o.t.h.'.E.F.t.t.&.*.*.h.(.` w # ",
"B.J t.h.B.'.B.Q.d. .F  .F P A P A ..A D  .N P ..D P P F P B V * P C +.F X.&.*.&.$.A.s.X.*.:.$.f.f.&.$.(.(.A.@.o.y.&.V.Z.j.C u @ ",
"i.U u.*.t.k.).'.s.....F k P D A F P  .D  .F  ...D F  .k A A r # F A P X.X.*.G o.s.t.@.J o.L.A.Z.V.&.L.:.Q.|.*.&.^.B.'.Q.i.J u + ",
":.J @.x.A.Z.$.X.` o. .P P P A P A P P  .F F F A A  .P  .F N x @ F D P  ...U $.K @.+.X.D +.b.{.{.'.(.).&.y.B.Z.h.A.A.=.[ G.p.d + ",
"y.p.A.&.V.y.s.@.0.k F F F A D D D A F D A  . .A A A D F F N r @ A A P  ... . .+.U 0.o.K @.f.f.B.F.'.:.+.@.o.@.E.Q.6./ / =.4.Q X ",
"*.;.'.s.t.&./ 0.K A k P  .P D F F F D D D D D F D D F A D A r . D A L .... . .o.P X. .F $.x.g.y.f.{.y.*.o.@.&.=.:.E./ G t.5.Q . ",
"` U.V.0.U X.P A C k F P A A F  .D  . . .P A A P  .P  .D N j j . P k F F F  .F ......P F K &.f.&.s.&.t.+. .U f.` E.=./ K ` ] Q . ",
"@.Y.y.R.0.o.o.P j k F F D F D F P N F D A N N N D U P F k j t . N N N D P A A U A  .o.G U U @.J I  .+.t.o.+.t.[ 7.&.` o.J R W . ",
"+.I ;.U G N L N N j N N N N B k C D D D A N j j A A A N B M r . A y j N A j N j N M F C K K N N B B U $.U I R ^ ( R U C U x a   ",
"V T V C V x x j r 6 y j y r 0 r y x x p p p t y r y t y y r 5 . k r y y t t y r t y y M r r r r r j y V V p i n E V w r V p u   ",
"X + $ : - * : > : $ * @ + + +   . . .       .                 + . X @ # > > : : * * # : $ @ +     . . . . .     . . . + X . + + ",
"t.y.y.f.f.&.$.@.` K D A D N j   ` t P P  .N P P P  .P  .A A A A U F .. ...o.@.@.*.^ J C ^ ( ' + G ` ( / ^ $.*.*.C.` y.^ f.C.&.U ",
"C ^ ^ $.U N N A N N j D N j r   y 0 N A B F F j N A j k j j N A A A A j N N L A F A G x C y 4 + A r y i C G C k V i k N F N B A ",
"F U $.o.@.L F P P F D D D B y . F t A A P D P F A N P D F A N F D D P k D @.U P C P U J c M 6 X U M A J G U A F o.X.k j F U L  .",
"U $.f.*.o.o.K  ...P A P P N r . P D F D A P P D D P ....P P P F D  .P X.o.X.@.D D D o.*.~ G 6 X U A k o.0.o.G  .o.X.U F P ..G X.",
"f.(.B.Z.&.y.*.@.X.P X... .A y   c N F  . .F D D  .P ..P F F A D  .P X.@.h.0.P ..@.U F.F.L.U x @ *.C K o.o.G A  .+.&.o.K G U @.@.",
"f.B.{.'.Q.'.V.&.@.X.X.@.U C t   ^ N P  . .P F P F  ... .F  .F  . ...G $.t.@.o.X.0.@.f.+.C.&.Z @ $.C D  .P P P ..+.o.@.U K K &.*.",
"y.}.{.x.*.f.f.(.V.*.t.*.U I p . / A  .P P N  ...N D P F F A  .F F ..K U *.@.+.J B.D.` *.:.&.V + t.g j P F F D  .o.@.0.0.U ` @.@.",
"(.b.h.B.x.f.&.;.&.'.V.B.t.` x   *.g F D F F ..A A D P  .D P  .F F K o.s.f.*.A.` (.;.~ F.f.K x + t.t g k k ....D .. .o.@.0.k.&.q.",
"*.$.Q.F.V.Z.@.j.s.E.E.Q.y.J x   ( A F F A F ....F  .D F D A  .F k c @.f.F.{.s.Z.$.$.U V.t.U r + :.A k U J X. .A c  .o.@.o...0.$.",
"D F $.Z.h.y.'.m.E.q.t.+.o.C u   *.k A F  .P F F D D  . .P F A D F c +.&.(.-.Q.8.B.*./ -.t.G x . B.y A .. .D A k k C o.X... .P F ",
"A ..U *.f.a.A.'.x.*.U  .L D r . ~ t j P  . .A  .F A F P A P F D P F o.^ 8.8.a.6.-./ $.y.*.^ V . ;.j F P F P P F A  ...X.K A F P ",
" .A U @.*.$.:.}.a.&.X...P j y . ` t D F j A P  . . . .P D P  .j j k G *.[ E.x.B.=.^ y.'.*.J V . ) A P F F j k A P F P  . .P F A ",
"D A K K ;.).L.E.i.*.*.K K k r   t.A D k D P A A P k g P F A P  .A k C +.b.y.t.y.&.` G &.!.5.n . ;.N x G C N k A P P B A D D F A ",
"N A B B U K.7.I.&.{ ( I C x 6   ' M N j N B N A N D j B A N A N N j L U a.&.$.I ^ J U x R ^ W   &.N k k j r k A j k j N N N j j ",
"r t r x C 3.( ( 5.3.2.! V 4 3   E t y t r t 0 r y y M y 0 y r r r r M C 2.<.n p p y C C ( Q 8   ^ r y t 6 0 0 y r t 0 t y t r r "
};
