/* XPM */
static char *cbed5cac64db46ebea71b012e2c4b275tyTGa4CPLXuhuE54[] = {
/* columns rows colors chars-per-pixel */
"64 64 239 2 ",
"   c #07051B",
".  c #08061B",
"X  c #0A081E",
"o  c #0B091E",
"O  c #0B091F",
"+  c #0C0A20",
"@  c #0E0C22",
"#  c #0F0D23",
"$  c #100E23",
"%  c #100E24",
"&  c #110F25",
"*  c #121026",
"=  c #131126",
"-  c #131127",
";  c #141228",
":  c #151328",
">  c #151329",
",  c #17132A",
"<  c #16142A",
"1  c #17152A",
"2  c #17152B",
"3  c #16172C",
"4  c #18142B",
"5  c #18162B",
"6  c #19152C",
"7  c #18162C",
"8  c #19172D",
"9  c #1A162D",
"0  c #1B172E",
"q  c #16182D",
"w  c #1A182D",
"e  c #1A182E",
"r  c #1B192E",
"t  c #1B192F",
"y  c #1C182F",
"u  c #1C1A2F",
"i  c #1A1B30",
"p  c #1D1930",
"a  c #1C1A30",
"s  c #1D1B31",
"d  c #1E1A31",
"f  c #1F1B32",
"g  c #1A1C31",
"h  c #1E1C31",
"j  c #1C1D32",
"k  c #1E1C32",
"l  c #1F1D32",
"z  c #1F1D33",
"x  c #1D1F34",
"c  c #1E1F34",
"v  c #201E33",
"b  c #201E34",
"n  c #211F34",
"m  c #211F35",
"M  c #221E35",
"N  c #231F36",
"B  c #1F2035",
"V  c #222035",
"C  c #202136",
"Z  c #222036",
"A  c #232136",
"S  c #232137",
"D  c #242037",
"F  c #242237",
"G  c #212338",
"H  c #222338",
"J  c #242238",
"K  c #252338",
"L  c #252339",
"P  c #27233A",
"I  c #232439",
"U  c #262439",
"Y  c #24253A",
"T  c #26243A",
"R  c #27253A",
"E  c #27253B",
"W  c #24263B",
"Q  c #25263B",
"!  c #26273C",
"~  c #28243B",
"^  c #28263B",
"/  c #29253C",
"(  c #28263C",
")  c #29273C",
"_  c #29273D",
"`  c #2A263D",
"'  c #2B273E",
"]  c #26283D",
"[  c #27283D",
"{  c #2A283D",
"}  c #28293E",
"|  c #2A283E",
" . c #2B293E",
".. c #2B293F",
"X. c #282A3F",
"o. c #292A3F",
"O. c #2C283F",
"+. c #2C2A3F",
"@. c #292B40",
"#. c #2A2B40",
"$. c #2D2940",
"%. c #2C2A40",
"&. c #2D2B40",
"*. c #2D2B41",
"=. c #2E2A41",
"-. c #2F2B42",
";. c #2B2C41",
":. c #2E2C41",
">. c #2E2C42",
",. c #2F2D42",
"<. c #2F2D43",
"1. c #2D2E43",
"2. c #2E2F44",
"3. c #302C43",
"4. c #302E43",
"5. c #312D44",
"6. c #302E44",
"7. c #312F44",
"8. c #312F45",
"9. c #322E45",
"0. c #332F46",
"q. c #2F3146",
"w. c #323045",
"e. c #303146",
"r. c #323046",
"t. c #333146",
"y. c #333147",
"u. c #313247",
"i. c #343047",
"p. c #343247",
"a. c #323348",
"s. c #353148",
"d. c #343248",
"f. c #353348",
"g. c #353349",
"h. c #363249",
"j. c #323449",
"k. c #333449",
"l. c #363449",
"z. c #34354A",
"x. c #36344A",
"c. c #37354A",
"v. c #37354B",
"b. c #34364B",
"n. c #35364B",
"m. c #38344B",
"M. c #38364B",
"N. c #39354C",
"B. c #38364C",
"V. c #39374C",
"C. c #39374D",
"Z. c #3A364D",
"A. c #36384D",
"S. c #37384D",
"D. c #3A384D",
"F. c #38394E",
"G. c #3A384E",
"H. c #3B394E",
"J. c #3B394F",
"K. c #383A4F",
"L. c #393A4F",
"P. c #3C384F",
"I. c #3C3A4F",
"U. c #393B50",
"Y. c #3A3B50",
"T. c #3D3950",
"R. c #3C3A50",
"E. c #3D3B50",
"W. c #3D3B51",
"Q. c #3E3A51",
"!. c #3F3B52",
"~. c #3A3C51",
"^. c #3B3C51",
"/. c #3B3D52",
"(. c #3E3C51",
"). c #3C3D52",
"_. c #3E3C52",
"`. c #3F3D52",
"'. c #3F3D53",
"]. c #3C3E53",
"[. c #3D3E53",
"{. c #3D3F54",
"}. c #3E3F54",
"|. c #403C53",
" X c #403E53",
".X c #413D54",
"XX c #403E54",
"oX c #413F54",
"OX c #413F55",
"+X c #423E55",
"@X c #433F56",
"#X c #3E4055",
"$X c #3F4055",
"%X c #3F4156",
"&X c #424055",
"*X c #404156",
"=X c #424056",
"-X c #434156",
";X c #434157",
":X c #414257",
">X c #444057",
",X c #444257",
"<X c #424358",
"1X c #454158",
"2X c #444258",
"3X c #454358",
"4X c #454359",
"5X c #47435A",
"6X c #43455A",
"7X c #464459",
"8X c #46445A",
"9X c #47455A",
"0X c #47455B",
"qX c #48465B",
"wX c #49455C",
"eX c #48465C",
"rX c #49475C",
"tX c #49475D",
"yX c #4A465D",
"uX c #4B475E",
"iX c #47485D",
"pX c #4A485D",
"aX c #4A485E",
"sX c #4B495E",
"dX c #4B495F",
"fX c #4C4A5F",
"gX c #4C4A60",
"hX c #4D4B60",
"jX c #4D4B61",
"kX c #4E4C62",
"lX c #4F4D63",
"zX c #514D64",
"xX c #504E64",
"cX c #514F64",
"vX c #514F65",
"bX c #545267",
"nX c #565269",
"mX c #5B596E",
"MX c #5F5D72",
/* pixels */
"OXJ.OX( E _.B._._.OXJ.>.*.v.J.v.v.6.d.k E ;XJ.B.v.r.E Z OX;XaX*.4X;X_.J >.d.4XR.;XOX_.J >.r.;X_._.R.B.Z J.0X4XJ *.J.OXJ r._.0X*.",
"0XOX;X*.>.0X;X0X;X4XR.>.6._.eX4XOXR.OX( ..eX0XeX;XOXv.r.gXaXxX6.R.J.J.J d.J.eXR.R.R.R.E d.B.eX;X0X0X;X..J.OX_.b d.OX4XE r.J.OX( ",
"*.*.6.Z E B.6.*...>...k Z 6.d.*.6.d.v.b k r.d.d.6.d.6.E J.d.B.8 *.*.r.b r.v.R.>.*.*.6.t E ..v.....6.d.a ..6.d.k J >.r.8 E 6.v.k ",
"k ( 6.*.6.B...t k ..>.( ..6.( < *.v.v.J Z >...b J 6.6.J d...>.@ J ( 6.Z r.>.*.< r.d.d.a ( ( *.t a ( 6.t E *.J.>...>.6.t >.B.J.k ",
"6.OX4X4X0XeX_...6.OX0XOX;XeXJ.Z OXaX;Xv.v.OX_.*.6.OX4XB.0XR.;XZ v.R.eXR.eXOXJ.Z ;X;X4X*.B.R._.E v._.0X>.v.B.0X_.eX4XOX.._.0X;XZ ",
"..R.v.d.d.d.B.E ..B.B.>.d.OXJ.J d._.>.( *.B._...E B.R.>.R.B._.k *.d.;Xd._.B.B.J >.r.r.a 6.B.R.J r.B.OX..r.r._.d.v.r.6.k r.B.B.a ",
"t >.E J b k *.k b ..E t b d.r.k k 6.J J ( *.v.k a *.>.b 6.>.v.; ; a ( < Z b ..b J E E @ J r.v.a Z ( r.J r.6.d.E t b E ; J ..r.Z ",
"J _.B.B.d.6._.6.d._.J.*.d.eX0X6.E 4X4XeX0X;X0X*.6.OXOX6.;X;XaX( r.B.OX*.d.B.aX0XOX_.J.b d.;X0X..d.B.4XB.0XOX_...*.v.;X*.d.d.;XB.",
"( J.J.>.6.;X_.*...R.R.*.*.R.R.*...B.OXR.R.R.6.b >.R._.6.r.;XR.E ( R.;XJ d.J.4XR._.J.B.Z d.J._.E *.J._.v.v.R.v.J >.R.R.>.*.J._.B.",
"k ..E ; < ( *.a a *.*.a t ....a a J J t a J Z 8 Z *.( 8 t >.>.k a ( ..% E *.6.k J E ..< E ( E + a ( ( k k J a o b ..( k b *.*.k ",
"J.;XJ.( ..OX0XR.R.0XOX*.*._.;XB._.OXv.( ..R.4XOXR.;XB.E ..OXeXR.R.;X_.E ;X0XOX( d.R.4Xd.OXR.B.a OXeX4Xv.v.R.d.b r.R.OXJ.OX0XJ.J ",
"v._.B...*.OX4XJ._.4XJ.E E J.4XR.OX;XB...*._.4XOXJ.OXv.( *.OX4XJ._.OXB.b J._.B.b r.R.0Xd.OXR.J.Z eXgX0Xv.v.OXB.J *.J.OXR._.;Xd.t ",
"k ( ( k b ..( a E *.( k b >.6.J J ..( b Z ....b J *...b J 6.6.Z J ( Z o Z J E 8 E *.6.a ..*.6.a ( >...a b >...a b *.*.b b ( J ; ",
"6.R.OXJ.B.R.r.Z ..v._.R._.4XJ.E *.B.R.B.B.R.d.J 6.J._.J.R.;XJ.( 6.B.B.b d.v.OXR.J.J.J.J d.J.;X6.( r.r.( *._.OXv.R.;Xv.Z Z r.J.d.",
"d.OX4XOXOX;XB.( >.J.;XOX4X0XB.J 6.R.;X_._.;XJ...d._.;X_.OX;Xv.J v.OX;X*.R.R.0X4X_.R.J.J v._.4X6.*.J.R.6.6.OX0X_.OX;Xd.J ( J.OXv.",
"b ( >...*.r...k ..6.6...*.6.( 8 b *.>.( ..6...a E >.6.*.*.>.Z - E 6.r.a ..E *.( >.*.*.8 *.6.r.t J r.d.J b *.6...( ..J t J d.>.8 ",
"6.6...Z E 6.d.6.*.r...k *.4X_.J ( B.v.J Z r.J.6.r.B.6.Z *.OXJ.b ( r.r.>.>.r.E ; r.6.v.( d...( < v.B.OXb B.kX;Xb Z >.OXd._.v.r.a ",
"d.R.J.6.6._.4XOX;X4Xv.J *.4X4X6.*.R._.6.6.4XaXOX;X0XJ...6.4X;X*.J.;X0XOX;X4Xv.Z J._.aXOXaXOXR.( eX4XaX..R.aXR.b d.R.aXR.eXOXR.( ",
"E v.v.Z b r.J.r.d.J.>.a k 6.6.b J d.v.E E d.v.( >.v.r.J E v.r.k E r.d.6.r.v.*.t ( *.B.*.B.6.6.k *.( r.8 ( r.>.a >.6.v.E d.r.r.k ",
"*.J.d.a t 6.v.( b >.r.....r...8 ( v.v.E J >.*.a a >.d.>.r.J.6.t b ( ..Z E 6.6.J ( E ( < E ( *.a t t *.< Z *.6.>.6.>.>.t ..>.r.Z ",
";XgXOX..*.4X0Xr.( R.eX4X4X0XR...R.aXaXJ.B.4X;X6.*._.eX4X0XaX_...R.;XR.r.d.;XeX;X4X_.J.E J.OX4X>.6.d.eX>.d.J.;X4X;X_.R.E B._.eXB.",
"r.B.6.Z ( R.J.E ( v.J.d.r.B.d...R.0X;X6.>.B.d.Z ..v.B.r.r.v.>.k B.R.v.( ( d.J.d.J.B.v.Z v.R.R.J ..6.;XJ *.v.R.B.d.r.r.k >.r.J.*.",
"k E E Z E 6.( 8 J *.( k k ..*.( d.R.d.k t E Z - Z ....J J ( b % E >.>.Z k E J a ..*.>.< J ..r.k Z J 6.- J v.d.b b E >.a ( E ( < ",
"6.R.4X4X;XOXv.( J._.B.6.r.OX0X;XR.0X_.....J.J...d.R.OXOX;X4Xv.Z r.OX0X_.R._.B.*.OX4X4XE >.B.aXOX;X_.;Xb B.xX4XZ 6.J.aXJ.4XJ.B.Z ",
"..OXv._.;XR.;XE ..d._...v.B.4XB.J._.r.Z *.;X_.J d.OXOXd.;XB.J.8 *.B._.J.R.OXd.b v.*.R.k *.R.R.R.R.;Xd.b ( _.R.( 6.B.0Xv.OXB.d.k ",
"Z 6...Z k b J ; k Z E ; E *.r.b t E J < t *...8 k E J a 6.6.R.b J ..( b Z *...k 6.E r.; Z >.>...b *.E ; < ( ( 8 k k E 8 ..*.6.a ",
"J._.;X6.*.R._.;XR.J.J.E R.;X4X..>._.OX6.6.;X0XR.B.R.r.E R.OXxXd.;X;XB...>.OX0X;X;XJ.OXE B.OXOXv.d.4X;X6.*.R.;XJ.OXJ.B.J B._.4Xr.",
"v.d.;X*.*.0XOXeX_._.R.J B._.R.b 6._.R.>.*._.0XOX4X0XR.>.;X;XkX6.J.R.r.E *.R.4X_._.B.R...R.4X0Xv.v.;X_.*...J.4XOX;XR.J.E d.v.R...",
"E Z 6.a k 6.k k ..>.6.< J ..*.; a ( ( k b *.*.Z Z ..E a 6.*.r.- b ( E b J 6.>.Z b b b ; E E ..; b ( ( a k *.*.Z b J *.a ....>.a ",
"r.v.R.d.v._.>.b r.R.;XE d.R.;X*...v.R.J.R.OXv.J E d.v.*.R.r.v.; >.B._.R.OX4XB.( ( 6.>.E d.*.r.< ..v.J.B.R.;XB.J ..d.;Xd.OXJ.J.( ",
">._._.OXOXOXOX*.d.OX4X( v.OX0X*.>.R.4X;X;X4XJ.( B.eXaX_.eX_.;XZ r._.;XOXOX;Xv.Z v.4X4XOXgXR.4XE r.R.;XOX4X0XJ.E d.J.0XB.4XR.B.b ",
"a B.6.d.6.( d.b ..d.d.< J >.6.; b *.6...( ..( k k 6.d.( r...d.t J >.6.( ( *.b @ a 6.r.6.R...d.; J *.>.( ( *.E t E ( 6.Z d.6...% ",
"k.Y.v.E Z >.v.v.d.v.m.b ~ OXB.*.E v...( a B.d.r.d.r.r.t E *.J.6.v.J.v.t ..*.v.d.6.*.v.8 J 6.d.*.>.*...< E *.J.6.6...E ; 6.R.OXE ",
"{.6X;Xk.k.;XaX0X4X4X4X*.6.eXR.6.d.;X_.v.6.4X0XOX;X;XOX..v.R.aXOXOX;XR.J J._.eX;X4X_.OXk *._.eX4XOX_._.( v.R.eX_.eX4X_.( R.;X4X*.",
"..q.2.E ] a.v.*...>.6.y b P.i.( *.d.v.E *.v.R.6.r.r.d.b *.>.B.*.6.r.*.8 r.v.B.>.6.>.J.a ( d.d.*.v.d.B.J r.v._.6.6.r.d.k *.>.r.a ",
"G #.#.I E ;.E < a J *.4 8 i.6.O.>.>.r.t *.6.v.b E ..r.b *.( ..t E >.6.k r.>...t *.*.J.k ( >.( t ..>.B.( B.v.B.E b ..r.k ..( ..; ",
"v.#X<X_._.;XB.E r._.eX3.( |.R.R.4XOX_.( R.OX;X( d.R.aXJ.4XR.B.Z r.OXaXB.eXR.d.E 0XOXeXJ >.J._.v.r.R.aX_.aX4XOX..B.;XgXJ.4X_.J.Z ",
"] k.A.a.k.J.d.E *.v.OX( J R.R.B.B.B.d.Z >.B.v.Z 6.B.4Xd._.v.d.k E v.OX6._.d.6.J v.r.R.k ..v.B.6...r.R.>.J.r.>.8 ..r.R.*.R.R.B.k ",
"g E ] B B ..>.E J ( *.0 N |.B.*.E r...b t *.*.J *.>.r.k ....6.Z E >.>.8 *...*.J J J r.8 J >.>.J E ( *.8 J J ( 8 a k Z ; *.d.d.8 ",
"A.#X{.r.r._.eX0X0X;X|.*.B.nXeXd.r.eX;XR.( OX;X0X4XOX_.E r.J.aX;XeX0XJ.b B._.4X_.eXOX4Xb *._.0X4X;X_.R.J r.J.eXOXOXJ.v.J R.0X0X..",
"k._.Y...! v._.B.B.B.R.6.B.xX4XB.E _.R.....J.R.R.OXr.OXk *.R.R.R._.B.d.k >.v.;XB.0XaXv.b ( J._.J.J.B._.J E ;XR.OXB.OXv.J J B.J.*.",
"q ] ;.Z c ] E t E ( 3.a a 6.( b k ..E - J 6.*.a Z b *.< Z E Z ; E E ..8 E E ..8 ..v...< a ..*.( J J ..- - ( k t k *.*.b Z >...; ",
"] ^.iX;X{.<XJ.( J.;XeXd.3.OXR.R.R.R.J.Z eXgX4XJ 6.R.4XJ.0XB.B.a B.R.eXJ.eX;XR.J B.eXOX*.6._.OXOXR.R.R.( .._.d.*.d.4X0XJ.J.4XB.Z ",
"] Y.<X^.Y.#XB.E d.J.>X3.*.@X|.|._.R._.k aX0X4XZ *._.R.J.0Xd._.a d.J.4Xv.4X_.J.Z d.;XB.J ..J._._.J.R.d.E *.OX_.6.6._.R.6.6._.B.J ",
"c ....k k ..( a Z J ( ; y 0.*.P ..>.v.@ 6...d.a a ..Z t ..b d.8 E E ..< E E ..8 k *.E 8 J 6...Z b ( Z a Z 6.>.a < J J t k 6.6.k ",
"J.{.A.] ..Y.OXB.J.B.B.~ 3.4XB.3.d.;X0XZ v.v.;XB.v.B.r.Z r.d.eXB._.J.B.Z r.v.OXd...R.R.v.;XeXv.E .._.J.R.OX;X_.Z ( B.J.6.d.OXJ.J ",
"^.#XJ.#.>.#X0XR.OX_.R.*.6.4XB.*.6.;XOX( r.R.;XJ.;XJ._.J r.R.4X_.;X_._.( B.R.4Xv...OX;XJ.;X0Xv.E *.4XOX;X;XOXOXJ 6.OX;Xv.v._.d.a ",
"c ! G 3 i ;.>.Z ( ( *.8 a 6.D 8 k 6.E 8 b d.6.E r.J r.- k *.E J ( ( ..8 E E *.t a r.6.Z E ..Z t t r.E J J J 6.8 t ( ( k b >...< ",
"( _.d.J.J.d.J.Z E B._.B.J._.d.b 6.r.v.k B.OXOXb ..J._.r._.r.d.; 6._._.>.~ >.*.Z |.P.;Xb ..m.R.v._.6._.a ( B.d.d.d.d.R.< B.R.aX( ",
">.OX;X4X4X;X_.( >.R.;XR.OXeXR.( r.J._.( B.OX;XE r.;X0XJ.4XR.;XE R.>X_.>.>.P._.r.6.d.4XE >.B.|._.0XR.OXJ r._.0X;X4XOX_.a r.B.4X*.",
"Z ( 6.( ( d.( k Z *.*.E *.B.6.t k ..6.t Z ..>.a Z 6.6.Z >.( d.t E O.E t k >...t >...r.; Z 6.i.O...>...t ( E v.J >.>...a E >.6.Z ",
"B.6.B.b Z J.r.v.d.B.r.( 6.OXJ.E ( v.J.( E r.B.6.>.v.r.J d.r._.b E r.v.>.6.m.O.; mX;XB.t d.0X|.( E B.v.r._.>.B.8 *.d.B.J.R._.d.( ",
"eXOX4X*.*.eXOXeX4X0XR.6.v.0X;X6.d.;X;Xv.6.OX0X4X;X4XJ.>.4X;XeXE 6.;XaX;X;X0XB.Z MXeXOXD R.gX;X~ >.;X;X;XxXR.4XZ v.OX4XeX0X4Xd.Z ",
"*.>.r.J E d.>.( >.d.>.b J r.>.a J r.>.*.Z d.d.6.>.r.( k d.6.r.@ b >.r.....i.3.v ....v.y ~ 6.*.v Z ..*.Z 6.*.v.b *.6.r.( 6.r.>.t ",
"Z r.6.6.6.6.6.a ( d.v.*.>.v.>.a E d.6.v.*._.6.E ( r.6.E v.6.r.@ E >.O.Z ..J.B...E .._.b ~ 6.d.6.>.( >.< E 6.v.>.6.r.v.t d.B.OXE ",
"r.eX_.4X4X_.4X..>.OXeX;X4XeXR.( r.OX_.aXOXkXB.( r.;XeX_.aX_.4XJ P.|.J.i.|.xXfXm.>X|.0XE r.|.0X;XeXJ.0XE d.4X;X;X;XOXeXb OXOXaXE ",
"E d.R.d.6.d.>.J ( r.r...>.J.r.k Z r.J.E v.>.E ; ( 6.r.>.r.B.>.a ( *.m.v D _.>.Z b ..r.k 3.m.OX>.B.6.6.J 6...v.r...B.B.a 6.r.6.k ",
"J >.>.Z b ..>.( ..>.( b ( B.r.a < >...k k *.*.>.*.6...Z E 6.*.b ( 6.J.b k d.O.E >.>.3.k r.P.OX..Z J 6.E r.....t ( v.d.< J ( >.Z ",
"OX4X_.6.>._.eX0X4X4XJ.>.B.eX4X6...0XR.d.( _.OXgX0X0XJ.>.r.OX;XB._.aXbXJ.i.0X0X0X;XR.B.E _.0XqX>.*.J.aXR.aX0X_.J B.eX0XE v.R.0XOX",
"6.v.r.J E r.J.v.B.J.6.Z E d.r.Z k d.v.( >.B.v.r.v.B.6.J ( d.r.( ..J.|.>.( v.B.i.R.v.d.D B.P.B.k *.B.;X*.J._.R.b E v.B.a 6.v._.r.",
"t J E b b E Z 8 Z *.( t 8 J ( a < t ( % B.r.d.t Z ....J E *.J - 4 ~ ~ v k D Z - ....>.v >...E $ E r.d.8 ( r.d.8 8 E ( - ..>.*.< ",
"6._.4XOXOX;XB.( r.OX;Xd.r._.4X_._.v._.t xX;XeXJ v.OX4X;X0XeXJ.E v.0X|._.|.R.m.k v.J.4Xm.;Xm.v.J J.;X0X>._.0X0X..d._.OX*.4X4XJ.b ",
"r.R.;XR._.;XB.E 6._.R.>.>.R.;XJ.;XR._.8 _.d.J.k d.R._.J.R.OXv.Z d.0X_.;X;XP.J.k m.J.0XJ.4XP.J...v.B.R.( B.R.R.Z r._._.E J.R.v.b ",
"< k k 8 t b a @ k E b % % b J t a Z b   a a a @ k Z k < 8 b t + $ D y D J k Z . < < k ; Z t t o b k k + a k b + < J J o a b Z ; "
};
