/* XPM */
static char *_42773bae13a44a7b3942c4065ead8fbqrzrJhd05L2uoMO8[] = {
/* columns rows colors chars-per-pixel */
"64 64 178 2 ",
"   c #B2B4B3",
".  c #B5B7B6",
"X  c #B7B9B8",
"o  c #B9BBBA",
"O  c #BABCBB",
"+  c #BCBEBD",
"@  c #BEC0BF",
"#  c #C0C0BE",
"$  c #C1C1BF",
"%  c #BFC1C0",
"&  c #C3C3C1",
"*  c #C1C3C2",
"=  c #C2C4C3",
"-  c #C4C4C2",
";  c #C5C4C2",
":  c #C3C5C4",
">  c #C4C6C5",
",  c #C6C6C4",
"<  c #C7C6C4",
"1  c #C8C7C5",
"2  c #C6C8C7",
"3  c #C8C8C6",
"4  c #C9C9C7",
"5  c #C7C9C8",
"6  c #C8CAC9",
"7  c #CBCAC8",
"8  c #CBCBC9",
"9  c #C9CBCA",
"0  c #CACCCB",
"q  c #CDCCCA",
"w  c #CDCDCB",
"e  c #CECDCB",
"r  c #CBCDCC",
"t  c #CCCECD",
"y  c #CECECC",
"u  c #CFCECC",
"i  c #CFCFCD",
"p  c #CDCFCE",
"a  c #D0CFCD",
"s  c #CED0CF",
"d  c #D0D0CE",
"f  c #D1D0CE",
"g  c #D1D1CF",
"h  c #D2D1CF",
"j  c #CFD1D0",
"k  c #D0D2D1",
"l  c #D2D2D0",
"z  c #D3D3D1",
"x  c #D1D3D2",
"c  c #D4D3D1",
"v  c #D2D4D3",
"b  c #D4D4D2",
"n  c #D5D4D2",
"m  c #D5D5D3",
"M  c #D6D5D3",
"N  c #D3D5D4",
"B  c #D4D6D5",
"V  c #D6D6D4",
"C  c #D7D6D4",
"Z  c #D7D7D5",
"A  c #D5D7D6",
"S  c gray84",
"D  c #D7D7D7",
"F  c #D8D7D5",
"G  c #D6D8D7",
"H  c #D8D8D6",
"J  c #D9D8D6",
"K  c #D9D9D7",
"L  c #DAD9D7",
"P  c #D7D9D8",
"I  c #D8D8D8",
"U  c gray85",
"Y  c #D8DAD9",
"T  c #DADAD8",
"R  c #DBDAD8",
"E  c #DBDBD9",
"W  c #D9DBDA",
"Q  c #DADADA",
"!  c gray86",
"~  c #DCDBD9",
"^  c #DADCDB",
"/  c #DCDCDA",
"(  c #DDDCDA",
")  c #DDDDDB",
"_  c #DEDDDB",
"`  c #DBDDDC",
"'  c gainsboro",
"]  c #DDDDDD",
"[  c #DCDEDD",
"{  c #DEDEDC",
"}  c #DFDEDC",
"|  c #DFDFDD",
" . c #DDDFDE",
".. c gray87",
"X. c #DFDFDF",
"o. c #E0DFDD",
"O. c #DEE0DF",
"+. c #E0E0DE",
"@. c #E1E0DE",
"#. c #E1E1DF",
"$. c #E2E1DF",
"%. c #DFE1E0",
"&. c gray88",
"*. c #E1E1E1",
"=. c #E0E2E1",
"-. c #E2E2E0",
";. c #E3E2E0",
":. c #E3E3E1",
">. c #E1E3E2",
",. c #E2E2E2",
"<. c gray89",
"1. c #E4E3E1",
"2. c #E2E4E3",
"3. c #E4E4E2",
"4. c #E5E4E2",
"5. c #E5E5E3",
"6. c #E6E5E3",
"7. c #E3E5E4",
"8. c #E4E4E4",
"9. c gray90",
"0. c #E4E6E5",
"q. c #E6E6E4",
"w. c #E7E6E4",
"e. c #E7E7E5",
"r. c #E5E7E6",
"t. c #E6E6E6",
"y. c #E7E7E7",
"u. c #E8E7E5",
"i. c #E6E8E7",
"p. c #E8E8E6",
"a. c #E9E8E6",
"s. c #E9E9E7",
"d. c #EAE9E7",
"f. c #E7E9E8",
"g. c gray91",
"h. c #E9E9E9",
"j. c #E8EAE9",
"k. c #EAEAE8",
"l. c #EBEAE8",
"z. c #EBEBE9",
"x. c #E9EBEA",
"c. c #EAEAEA",
"v. c gray92",
"b. c #ECEBE9",
"n. c #EAECEB",
"m. c #ECECEA",
"M. c #EDEDEB",
"N. c #EBEDEC",
"B. c #ECECEC",
"V. c gray93",
"C. c #ECEEED",
"Z. c #EEEEEC",
"A. c #EFEFED",
"S. c #EDEFEE",
"D. c #EEEEEE",
"F. c #EFEFEF",
"G. c #EEF0EF",
"H. c #F0F0EE",
"J. c #EFF1F0",
"K. c gray94",
"L. c #F1F1F1",
"P. c #F0F2F1",
"I. c #F1F3F2",
"U. c gray95",
"Y. c #F3F3F3",
"T. c #F2F4F3",
"R. c #F3F5F4",
"E. c #F3F4F6",
"W. c #F4F4F4",
"Q. c gray96",
"!. c #F4F6F5",
"~. c #F4F5F7",
"^. c #F5F7F6",
"/. c #F6F6F6",
"(. c gray97",
"). c #F6F8F7",
"_. c #F5F6F8",
"`. c #F6F7F9",
/* pixels */
"  X % 2 0 s v B ^ ` [ =.2.0.i.j.j.j.n.N.C.G.J.P.J.J.P.P.P.T.R.R.R.R.R.W.W.W.).).).).).W.).W.W.W._._._._._._._._._._._._._._.W.R.",
". O = 9 t x B P ` [ O.=.7.0.f.j.j.j.n.N.C.G.J.J.J.J.P.P.P.T.R.R.R.R.R.W.W.W.).).).).).).).).W.W._._._._._._._._._._._._._._.W.R.",
"o @ 2 t x B Y ^ [ [ %.=.7.i.f.j.j.n.n.N.C.G.G.J.J.J.J.P.P.T.T.R.R.R.R.R.W.W.W.W.W.W.W.W.).).).)._._._._._._._._._._._._._._.W.R.",
"+ * 9 j N P ^ [ O.%.=.2.0.i.j.j.n.n.N.C.C.C.G.G.G.G.J.P.P.P.T.T.T.T.R.R.R.W.W.W.W.W.W.W.).).).)._._._._._._._._._._._._._._.W.R.",
"@ : 0 x B P ^ [ =.=.2.0.i.f.j.n.n.n.N.C.C.C.G.G.G.G.J.J.P.P.T.T.T.T.T.R.R.R.W.W.W.W.).).).W.).)._._._._._._._._._._._._._._.W.R.",
"% > r x B Y ` [ =.2.7.0.f.j.j.n.N.N.N.C.C.C.C.C.C.G.G.J.P.P.P.P.P.T.T.T.R.R.R.R.W.W.).).W.W.W.W._._._._._._._._._._._._._._.W.R.",
"= 5 t N P ^ [ %.7.7.0.i.f.j.n.N.N.N.C.C.C.C.C.C.C.C.G.J.P.P.P.P.P.P.T.T.T.R.R.R.).).).).W.W.W.W._._._._._._._._._._._._._._.W.R.",
": 9 j B Y ` O.=.7.0.0.i.j.j.n.N.N.N.C.C.C.C.C.C.C.C.G.J.J.P.P.P.P.P.P.T.T.R.R.R.).).).).W.W.W.W._._._._._._._._._._._._._._.W.R.",
"5 r x P ^ O.=.0.0.0.i.j.j.n.N.N.N.N.N.C.C.C.C.C.C.C.G.J.J.P.P.P.T.T.T.R.R.W.W.W.W.W.W.W.).).).)._._._._._._._._._._._._._._._._.",
"9 t v P ` O.=.0.0.0.f.j.n.n.N.N.N.N.N.C.C.C.C.C.C.C.G.J.J.P.P.P.T.T.T.R.R.R.W.W.W.W.W.W.).).).)._._._._._._._._._._._._._._._._.",
"9 s N Y ` O.=.0.0.i.f.j.n.n.N.n.N.N.N.N.C.C.C.C.C.C.G.J.J.P.P.P.T.T.T.T.R.R.R.W.W.W.W.W.W.W.).)._._._._._._._._._._._._._._._._.",
"t x B ^ [ %.2.0.i.i.j.j.n.n.n.n.n.n.N.N.N.C.C.C.C.C.G.J.J.P.P.P.P.P.T.T.T.R.R.R.R.R.W.W.W.W.).)._._._._._._._._._._._._._._._._.",
"s v P ` [ %.2.0.f.f.j.n.n.N.n.n.n.n.n.N.N.N.C.C.C.C.G.J.J.P.P.P.P.P.P.T.T.T.R.R.R.R.R.W.W.W.W.)._._._._._._._._._._._._._._._._.",
"x B Y [ O.=.2.0.j.j.j.n.N.N.n.n.j.n.n.n.N.N.N.N.C.C.G.J.J.P.P.P.P.P.P.P.T.T.T.T.T.R.R.R.W.W.W.W._._._._._._._._._._._._._._._._.",
"v B ^ [ %.=.2.0.j.j.n.N.N.N.n.n.j.j.n.n.n.N.N.N.C.C.G.J.J.P.P.P.P.P.P.P.P.T.T.T.T.T.R.R.R.W.W.W._._._._._._._._._._._._._._._._.",
"N G ` O.%.=.7.0.j.j.n.N.N.N.n.n.j.j.j.n.n.N.N.N.C.C.G.J.J.P.P.P.P.P.P.P.P.T.T.T.T.T.T.R.R.W.W.W._._._._._._._._._._._._._._._._.",
"B Y [ =.=.<.0.0.j.j.j.j.j.v.v.v.n.n.n.N.N.C.C.C.C.C.C.G.G.J.J.J.P.P.P.P.P.P.Y.Y.Y.Y.Y.W.W.W.W.W.W.W.W.W.W.(.(.W.W.W.W.W.W.W.W.W.",
"B Y [ =.=.8.0.0.j.j.j.j.j.v.v.v.n.n.n.N.N.C.C.C.C.C.C.G.G.J.J.J.P.P.P.P.P.P.Y.Y.Y.Y.Y.W.W.W.W.W.W.W.W.W.W.W.(.W.W.W.W.W.W.W.W.W.",
"B Y [ =.<.0.0.0.j.j.j.j.j.j.j.v.n.n.n.N.N.C.C.C.C.C.C.G.G.J.J.J.P.P.P.P.P.P.P.Y.P.P.Y.P.W.W.W.W.W.W.W.W.W.W.W.W.W.W.W.W.W.W.W.W.",
"F Y o.=.<.0.0.j.j.j.j.j.j.v.j.j.n.n.n.N.N.C.C.C.C.C.C.G.G.J.J.J.P.P.P.P.P.P.P.P.P.P.P.P.P.W.W.W.W.W.W.W.W.W.W.W.W.W.W.W.W.W.W.W.",
"F ! o.=.0.0.0.j.j.j.j.j.j.v.v.v.n.n.n.N.N.C.C.C.C.C.C.G.G.J.J.J.K.K.K.P.P.P.P.P.P.P.P.Y.Y.Y.W.W.W.W.W.W.W.W.W.W.W.W.W.W.W.W.W.W.",
"Y ! =.<.0.0.0.j.j.j.j.j.j.v.v.v.n.n.n.N.N.C.C.C.C.C.C.G.G.J.J.J.C.K.K.K.P.P.P.P.P.P.P.P.Y.Y.Y.Y.W.W.W.W.W.W.W.W.W.W.W.W.W.W.W.W.",
"Y Y =.<.0.0.u.j.j.j.j.j.j.v.v.v.n.n.n.N.N.C.C.C.C.C.C.G.G.J.J.J.A.C.P.P.P.P.P.P.P.P.P.P.P.Y.Y.Y.P.P.W.W.W.W.W.W.W.W.W.W.W.W.W.W.",
"Y Y =.<.0.0.u.j.j.j.j.j.j.v.v.v.n.n.n.N.N.C.C.C.C.C.C.G.G.J.J.J.A.A.A.P.P.P.P.P.P.P.P.P.P.Y.Y.Y.P.P.P.W.W.W.W.W.W.W.W.W.W.W.W.W.",
"[ [ &.=.0.0.g.j.j.j.j.j.j.j.j.j.j.j.j.j.j.n.n.n.C.C.C.C.C.G.G.G.P.P.P.P.P.P.P.P.P.P.P.P.P.Y.Y.P.P.P.P.Y.Y.W.W.W.W.W.W.W.W.W.W.W.",
"[ [ =.<.0.0.j.j.j.j.j.j.j.j.j.j.j.j.j.j.j.n.n.n.C.C.C.C.C.G.G.G.P.P.P.P.P.P.P.P.P.P.P.P.P.P.Y.P.P.P.P.W.Y.Y.W.W.W.W.W.W.W.W.W.W.",
"[ [ =.=.0.0.j.j.j.j.j.j.j.j.j.j.j.j.j.j.j.n.n.n.C.C.C.C.C.G.G.G.P.P.P.P.P.P.P.P.P.P.P.P.P.P.P.P.P.P.P.P.P.Y.Y.W.W.W.W.W.W.W.W.W.",
"[ [ =.=.0.0.j.j.j.j.j.j.j.j.j.j.j.j.j.j.j.n.n.n.C.C.C.C.C.G.G.G.A.A.P.P.K.P.P.P.P.P.P.P.P.P.P.P.P.P.P.P.P.P.Y.Y.Y.Y.Y.Y.P.P.P.P.",
"[ [ =.=.0.0.g.g.j.j.j.j.j.j.j.j.j.j.j.j.j.n.n.n.C.C.C.C.C.G.G.G.A.A.A.P.P.P.P.P.P.P.P.P.P.P.P.P.P.P.P.P.P.P.P.P.Y.Y.Y.Y.P.P.P.P.",
"[ [ =.=.0.u.g.g.g.g.g.j.j.j.j.j.j.j.j.j.j.n.n.n.C.C.C.C.C.G.G.G.C.C.A.A.P.P.P.P.A.P.P.P.P.P.P.P.P.P.P.P.P.P.P.P.P.P.P.P.P.P.P.P.",
"[ [ =.=.0.u.g.j.g.g.g.g.j.j.j.j.j.j.j.j.j.n.n.n.C.C.C.C.C.G.G.G.C.C.C.C.A.P.K.K.C.C.K.K.P.P.P.P.P.P.P.P.P.P.P.P.P.P.P.P.P.P.P.P.",
"[ [ =.=.0.u.j.j.g.g.g.g.j.j.j.j.j.j.j.j.j.n.n.n.C.C.C.C.C.G.G.G.C.C.C.C.C.P.P.K.C.C.C.K.P.P.P.P.P.P.P.P.P.P.P.P.P.P.P.P.P.P.P.P.",
"! [ =.=.0.0.g.j.u.u.0.y.y.y.y.y.a.a.a.j.j.j.v.v.m.m.m.m.m.C.C.C.C.C.C.C.A.H.H.H.H.H.H.H.H.H.H.H.P.P.P.P.P.P.P.P.P.P.P.P.P.P.P.P.",
"Y [ &.=.0.0.g.g.u.u.0.0.y.y.g.y.a.a.a.j.j.j.v.j.m.m.m.m.m.m.C.C.C.C.C.A.A.A.H.H.H.H.H.H.H.H.H.H.P.P.P.P.P.P.P.P.P.P.P.P.P.P.P.P.",
"! [ &.=.0.0.j.j.u.u.u.0.0.0.g.g.a.a.a.a.j.j.j.j.m.m.m.m.m.m.m.C.C.C.C.C.A.A.A.H.H.H.H.H.H.H.H.H.P.P.P.P.P.P.P.P.P.P.P.P.P.P.P.P.",
"! [ &.=.0.0.j.j.u.u.0.0.0.0.g.g.a.a.a.a.a.j.j.j.j.j.m.m.m.m.m.m.m.m.C.C.C.A.A.A.C.C.C.C.C.C.C.C.A.A.P.P.K.P.P.P.P.P.P.P.P.P.K.K.",
"! [ =.=.0.0.j.j.0.0.u.u.0.0.0.0.a.a.a.a.a.a.j.j.j.j.v.m.m.m.m.m.m.m.m.C.C.C.A.A.A.A.A.A.C.C.C.C.A.A.A.P.P.P.P.P.P.P.P.K.K.C.A.A.",
"! [ =.=.0.0.j.j.0.0.0.g.0.0.0.0.0.a.a.a.a.a.a.a.j.j.v.v.m.m.m.m.m.m.m.m.C.C.C.C.C.C.C.C.C.C.C.C.C.C.A.A.P.P.P.P.P.P.P.P.C.C.A.C.",
"! [ =.=.0.u.j.j.0.0.g.g.g.g.0.u.0.0.a.a.a.a.a.a.j.j.j.v.v.m.m.m.m.m.m.m.m.C.C.C.C.C.C.C.C.C.C.C.C.C.C.C.A.P.P.P.P.P.K.A.C.C.C.C.",
"! [ =.=.0.u.j.j.0.0.g.g.g.g.g.g.0.0.0.a.a.a.a.a.j.j.j.v.v.m.m.m.m.m.m.m.m.C.C.C.C.C.C.C.C.C.C.C.C.C.C.C.C.K.P.P.K.K.K.A.C.C.C.C.",
"[ [ =.<.0.0.0.0.0.0.g.g.g.u.0.0.u.u.0.a.a.a.a.a.a.a.j.j.v.m.m.m.m.m.m.m.m.C.C.C.m.m.m.m.m.m.m.m.C.C.C.C.C.C.C.C.C.C.C.C.C.C.j.j.",
"[ [ =.8.0.0.u.0.0.0.g.g.u.u.0.0.u.u.0.a.a.a.a.a.a.a.j.j.v.v.m.m.m.m.m.m.m.m.C.C.m.m.m.m.m.m.m.m.C.C.C.C.C.C.C.C.C.C.C.C.C.j.j.v.",
"[ [ =.=.0.0.0.0.g.g.g.g.0.0.0.0.u.u.u.u.a.a.a.a.j.j.j.j.v.v.v.m.m.m.m.m.m.m.m.C.m.m.m.m.m.m.m.m.C.C.C.C.C.C.C.C.C.C.C.C.v.v.j.j.",
"[ [ =.=.0.0.0.u.0.0.0.0.0.0.0.0.0.0.u.u.0.a.a.a.a.a.j.j.j.j.v.v.j.j.m.m.m.m.m.m.m.m.m.m.m.m.m.m.C.C.C.C.C.C.C.C.C.C.C.v.j.j.j.j.",
"[ [ [ =.0.0.0.0.0.0.0.0.0.0.0.0.0.0.0.u.0.0.a.a.a.a.a.j.j.j.j.j.j.j.j.m.m.m.m.m.m.m.m.m.m.m.m.m.C.C.C.C.C.C.C.C.v.v.v.j.j.j.j.u.",
"Y [ o.=.<.0.0.0.0.0.0.0.0.0.0.0.3.0.0.0.0.0.0.0.a.a.a.a.j.j.j.j.j.j.j.j.m.m.m.m.j.v.v.v.j.j.j.j.C.C.C.C.B.B.C.C.j.j.j.j.j.u.0.0.",
"! [ o.=.<.0.0.0.0.0.0.0.0.0.0.0.3.3.0.0.0.0.0.0.a.a.a.a.a.j.j.j.j.j.j.j.j.m.m.m.j.j.v.v.v.v.j.j.C.C.B.B.B.B.C.C.j.j.j.j.u.0.0.0.",
"! [ [ =.<.0.0.0.0.0.0.0.0.0.0.0.3.3.3.0.0.u.0.0.a.a.a.a.a.j.j.j.j.j.j.v.j.m.m.m.j.j.v.v.v.v.j.j.C.B.B.B.B.B.C.C.j.j.j.u.0.0.0.0.",
"J Y ) [ #.=.3.3.0.0.0.3.3.3.3.3.3.3.3.3.3.0.0.0.u.u.0.a.a.a.a.a.a.a.a.j.j.j.j.j.j.j.j.j.j.j.j.j.a.a.v.v.v.v.j.a.a.u.0.0.u.u.3.<.",
"J J ) [ #.=.3.3.0.0.0.3.3.3.3.3.3.3.3.3.3.3.0.0.u.u.0.a.a.a.a.a.a.a.a.j.j.j.j.j.j.j.j.j.j.j.j.j.a.a.v.v.v.j.a.a.a.u.3.3.0.0.3.<.",
"F J Y [ #.=.<.3.0.0.0.3.3.3.3.3.3.3.3.3.3.3.3.0.u.u.u.u.a.a.a.a.a.a.a.a.j.j.j.v.j.j.j.j.j.j.j.j.a.a.v.v.l.l.a.a.a.u.3.3.3.3.<.#.",
"B B Y ) #.=.=.3.0.0.0.3.3.3.3.3.=.=.3.3.3.3.3.3.0.0.0.u.0.a.a.a.a.a.a.a.a.j.j.j.a.a.a.a.a.a.a.a.a.v.v.v.v.a.a.a.u.3.<.<.<.<.#.o.",
"m m J ) [ #.=.=.0.0.0.3.3.3.3.3.<.=.=.3.3.3.3.3.0.0.0.u.u.u.a.a.a.a.a.a.a.a.j.j.a.a.a.a.a.a.a.a.a.v.v.v.a.a.u.u.u.3.<.#.#.#.o.) ",
"x m J ! [ #.=.=.0.0.0.3.3.3.3.3.=.=.=.=.3.3.3.3.3.0.0.0.u.u.u.0.0.a.a.a.a.a.a.a.a.a.a.a.a.a.a.a.a.v.v.v.a.a.0.0.3.<.#.#.#.o.) ! ",
"x m F Y [ #.=.<.0.0.0.3.3.3.3.3.=.=.=.=.=.3.3.3.3.3.0.0.0.u.0.0.0.0.a.a.a.a.a.a.a.a.a.a.a.a.a.a.j.j.v.a.a.u.0.3.3.=.#.o.[ ) ! J ",
"g x B Y ) #.=.<.0.0.0.3.3.3.3.3.=.=.=.=.=.3.3.3.3.3.3.0.0.u.0.0.0.0.0.a.a.a.a.a.a.a.a.a.a.a.a.a.j.j.v.a.a.u.0.3.3.#.o.[ o.) Y J ",
"t g m J ) #.#.=.=.=.3.3.3.3.3.3.<.<.<.<.<.<.<.<.3.3.3.3.3.3.3.3.0.0.0.0.u.a.a.a.0.0.0.a.a.a.a.a.a.a.a.a.a.a.0.0.<.<.#.o.[ ) J m ",
"w t x J ) [ #.#.=.<.3.3.3.3.3.3.<.<.<.<.<.<.<.<.3.3.3.3.3.3.3.3.0.0.0.0.u.u.a.a.0.0.0.a.a.a.a.a.u.a.a.a.u.3.3.3.#.#.) ) ! J B c ",
"9 w x B ! [ [ #.#.=.=.3.3.3.3.3.<.<.<.<.<.<.<.<.3.3.3.3.3.3.3.3.0.0.0.0.u.u.u.a.0.0.0.0.a.a.a.a.u.u.u.u.3.3.#.#.o.) ! Y J F c g ",
"3 9 t m J ) [ o.#.#.=.=.3.3.3.<.=.<.<.<.<.<.<.=.3.3.3.3.3.3.3.3.3.3.0.0.0.u.u.u.0.0.0.0.0.a.a.a.0.u.u.3.3.<.#.#.o.) J J F m g t ",
"> 3 w x B Y ) ) [ o.#.=.=.=.<.<.=.=.<.<.<.<.=.=.3.3.3.3.3.3.3.3.3.3.3.0.0.0.u.u.0.0.0.u.u.u.a.a.u.u.0.u.3.<.#.#.) ! J F F c a w ",
"* > 9 g m J ! ) ) [ #.#.=.=.<.=.=.=.<.<.<.<.=.=.=.=.<.<.<.<.=.=.3.3.3.3.0.0.0.0.3.0.0.0.u.u.0.0.u.0.0.3.<.<.#.o.) Y F m m g w 9 ",
"$ ; 3 a m B Y Y ) ) o.#.=.=.=.=.=.=.=.<.<.<.=.=.=.=.=.=.<.<.<.=.3.3.3.3.3.0.0.0.3.3.0.0.0.u.u.u.3.3.3.<.<.o.o.) Y J m c g t 9 > ",
"$ * 3 t x B J Y ) ) [ #.#.=.=.=.=.=.<.<.<.<.=.=.=.=.=.=.<.<.<.<.3.3.3.3.3.0.0.0.3.3.3.0.0.u.u.u.3.<.<.=.#.o.) ! J m c g a w 1 ; "
};
